<svg width="438" height="29" viewBox="0 0 438 29" fill="none" xmlns="http://www.w3.org/2000/svg">
<path d="M0 28.538H12.6332C18.8604 28.538 22.4345 25.2114 22.4345 20.6612C22.4345 16.5922 19.479 14.0353 16.0698 13.8841V13.6092C19.1628 12.9631 21.3348 10.7224 21.3348 7.50567C21.3348 3.25796 18.0631 0.384906 11.7396 0.384906H0V28.538ZM6.80459 23.0531V16.3448H11.1348C13.7329 16.3448 15.3275 17.7194 15.3275 19.8777C15.3275 21.8709 13.9528 23.0531 11.0111 23.0531H6.80459ZM6.80459 11.9596V5.78734H10.6811C12.9493 5.78734 14.3927 6.9558 14.3927 8.82535C14.3927 10.8049 12.7981 11.9596 10.5712 11.9596H6.80459Z" fill="black"/>
<path d="M25.7062 28.538H32.5108V18.9016H36.0025L41.1437 28.538H48.5669L42.7246 17.8157C45.8176 16.4135 47.6046 13.6504 47.6046 9.76012C47.6046 3.97278 43.6594 0.384906 37.3359 0.384906H25.7062V28.538ZM32.5108 13.5404V5.86982H35.865C38.9168 5.86982 40.5526 7.14826 40.5526 9.76012C40.5526 12.372 38.9168 13.5404 35.865 13.5404H32.5108Z" fill="black"/>
<path d="M77.9091 14.4615C77.9091 5.15499 72.0256 0 64.4649 0C56.8768 0 51.0344 5.15499 51.0344 14.4615C51.0344 23.7267 56.8768 28.9229 64.4649 28.9229C72.0256 28.9229 77.9091 23.768 77.9091 14.4615ZM70.9533 14.4615C70.9533 19.9739 68.5339 22.9569 64.4649 22.9569C60.4096 22.9569 57.9765 19.9739 57.9765 14.4615C57.9765 8.94907 60.4096 5.96604 64.4649 5.96604C68.5339 5.96604 70.9533 8.94907 70.9533 14.4615Z" fill="black"/>
<path d="M98.914 0.384906V17.9531C98.914 20.8812 96.8383 22.9844 93.8003 22.9844C90.7485 22.9844 88.6865 20.8812 88.6865 17.9531V0.384906H81.8819V18.5442C81.8819 24.8402 86.6383 28.8955 93.8003 28.8955C100.907 28.8955 105.705 24.8402 105.705 18.5442V0.384906H98.914Z" fill="black"/>
<path d="M128.445 9.58141H135.332C134.645 3.97278 129.641 0 123.125 0C115.606 0 109.667 5.29246 109.667 14.5027C109.667 23.4105 115.138 28.9229 123.208 28.9229C130.452 28.9229 135.635 24.4278 135.635 16.8671V13.1418H123.496V18.1043H129.078C129.009 21.0736 126.947 22.9569 123.263 22.9569C119.043 22.9569 116.609 19.8364 116.609 14.4202C116.609 9.04529 119.18 5.96604 123.263 5.96604C125.985 5.96604 127.84 7.29947 128.445 9.58141Z" fill="black"/>
<path d="M139.645 28.538H146.45V17.2245H157.543V28.538H164.334V0.384906H157.543V11.6846H146.45V0.384906H139.645V28.538Z" fill="black"/>
<path d="M167.682 5.91106H176.232V28.538H182.94V5.91106H191.477V0.384906H167.682V5.91106Z" fill="black"/>
<path d="M202.196 5.91106H210.746V28.538H217.455V5.91106H225.991V0.384906H202.196V5.91106Z" fill="black"/>
<path d="M254.602 14.4615C254.602 5.15499 248.718 0 241.157 0C233.569 0 227.727 5.15499 227.727 14.4615C227.727 23.7267 233.569 28.9229 241.157 28.9229C248.718 28.9229 254.602 23.768 254.602 14.4615ZM247.646 14.4615C247.646 19.9739 245.226 22.9569 241.157 22.9569C237.102 22.9569 234.669 19.9739 234.669 14.4615C234.669 8.94907 237.102 5.96604 241.157 5.96604C245.226 5.96604 247.646 8.94907 247.646 14.4615Z" fill="black"/>
<path d="M265.489 0.384906L275.785 19.1353V28.538H282.549V19.1353L292.845 0.384906H285.243L279.291 12.1658H279.043L273.091 0.384906H265.489Z" fill="black"/>
<path d="M320.417 14.4615C320.417 5.15499 314.534 0 306.973 0C299.385 0 293.543 5.15499 293.543 14.4615C293.543 23.7267 299.385 28.9229 306.973 28.9229C314.534 28.9229 320.417 23.768 320.417 14.4615ZM313.461 14.4615C313.461 19.9739 311.042 22.9569 306.973 22.9569C302.918 22.9569 300.485 19.9739 300.485 14.4615C300.485 8.94907 302.918 5.96604 306.973 5.96604C311.042 5.96604 313.461 8.94907 313.461 14.4615Z" fill="black"/>
<path d="M341.422 0.384906V17.9531C341.422 20.8812 339.346 22.9844 336.308 22.9844C333.257 22.9844 331.195 20.8812 331.195 17.9531V0.384906H324.39V18.5442C324.39 24.8402 329.146 28.8955 336.308 28.8955C343.415 28.8955 348.213 24.8402 348.213 18.5442V0.384906H341.422Z" fill="black"/>
<path d="M360.795 28.538H373.428C379.655 28.538 383.229 25.2114 383.229 20.6612C383.229 16.5922 380.274 14.0353 376.864 13.8841V13.6092C379.957 12.9631 382.129 10.7224 382.129 7.50567C382.129 3.25796 378.858 0.384906 372.534 0.384906H360.795V28.538ZM367.599 23.0531V16.3448H371.929C374.527 16.3448 376.122 17.7194 376.122 19.8777C376.122 21.8709 374.747 23.0531 371.806 23.0531H367.599ZM367.599 11.9596V5.78734H371.476C373.744 5.78734 375.187 6.9558 375.187 8.82535C375.187 10.8049 373.593 11.9596 371.366 11.9596H367.599Z" fill="black"/>
<path d="M385.099 0.384906L395.395 19.1353V28.538H402.158V19.1353L412.454 0.384906H404.853L398.9 12.1658H398.653L392.701 0.384906H385.099Z" fill="black"/>
<path d="M437.137 11.8634H424.105V17.0458H437.137V11.8634Z" fill="black"/>
</svg>
