<svg width="281" height="254" viewBox="0 0 281 254" fill="none" xmlns="http://www.w3.org/2000/svg">
<path d="M1.08398 73.884V1H79.1555V59.8778C79.1555 63.8549 77.7721 67.1403 75.092 69.8205C72.4118 72.5007 68.9534 73.884 64.8035 73.884H1.08398ZM40.8546 14.9197H39.2984V59.7049H40.163C40.5952 59.7049 40.8546 59.2726 40.8546 58.3216V14.9197Z" fill="white" stroke="black"/>
<path d="M158.093 73.884H80.627V1H158.093V42.2404H120.398V14.9197H118.841V43.7102H158.093V57.8028H118.841V59.3591H158.093V73.884Z" fill="white" stroke="black"/>
<path d="M197.865 68.9559V73.884H159.65V1H237.117V53.3935H199.421V14.9197H197.865V54.8633H237.117V68.8695H197.865V68.9559Z" fill="white" stroke="black"/>
<path d="M238.586 1H279.999V7.13851H238.586V1ZM238.586 73.884V8.6083H279.999V73.7976H238.586V73.884Z" fill="white" stroke="black"/>
<path d="M42.154 131.032V118.669C27.5426 119.274 13.1041 123.597 1 128.525V146.249H43.3644V146.595C43.3644 147.546 43.0185 147.978 42.4133 147.978H1V163.627H68.8694C73.7975 163.627 77.6882 162.244 80.3684 159.391C83.0485 156.537 84.4319 152.82 84.4319 148.237V131.205H42.154V131.032ZM43.7967 118.582V129.303H82.184C70.5122 121.09 57.1976 118.237 43.7967 118.582Z" fill="#1FB1FD" stroke="black"/>
<path d="M84.4319 84.9504V129.39H82.184C70.5122 121.09 57.1112 118.323 43.7967 118.669V100.081H43.105C42.4998 100.081 42.154 100.686 42.154 101.983V118.755C27.5426 119.361 13.1041 123.684 1 128.612V100.426C1 95.8441 2.38333 92.1264 5.23644 89.2733C8.08955 86.4202 11.9802 85.0369 16.9083 85.0369H84.4319V84.9504Z" fill="white" stroke="black"/>
<path d="M128.871 143.655V148.41H127.228V143.569C106.478 142.963 90.9159 134.75 86.0742 131.983V163.454H170.111V133.194C155.413 141.148 141.321 143.741 128.871 143.655Z" fill="#1FB1FD" stroke="black"/>
<path d="M170.025 84.9504V133.194C155.327 141.148 141.235 143.742 128.871 143.655V84.9504H170.025Z" fill="white" stroke="black"/>
<path d="M127.228 84.9504V143.655C106.478 143.05 90.9159 134.837 86.0742 132.07V85.0369H127.228V84.9504Z" fill="white" stroke="black"/>
<path d="M243.255 120.918V163.455H279.048V128.872C265.82 124.895 253.889 122.388 243.255 120.918ZM209.277 120.053V163.455H241.612V120.659C228.989 119.189 218.268 119.189 209.277 120.053ZM171.754 163.455H207.547V120.226C184.809 122.734 173.57 130.774 171.754 132.244V163.455Z" fill="#1FB1FD" stroke="black"/>
<path d="M279.136 84.9504V128.958C265.821 124.894 253.976 122.387 243.342 120.917V99.9941H241.699V120.744C229.076 119.188 218.356 119.188 209.364 120.052V99.9941H207.721V120.225C184.983 122.733 173.743 130.773 171.928 132.243V84.9504H279.136Z" fill="white" stroke="black"/>
<path d="M1.08594 174.522H108.467V253.112H72.6731V189.652H71.0304V253.112H38.6087V189.652H36.966V253.112H1.08594V174.522Z" fill="#1FB1FD" stroke="black"/>
<path d="M193.628 253.112H110.109V174.522H193.628V218.961H152.992V189.652H151.35V220.69H193.714V235.907H151.35V237.55H193.714V253.112H193.628Z" fill="#1FB1FD" stroke="black"/>
<path d="M238.241 229.162H236.511V244.897H195.357V174.607H279.395V208.931C279.395 214.205 277.406 218.095 273.429 220.775H279.481V244.897H238.241V229.162Z" fill="#1FB1FD" stroke="black"/>
<path d="M279.48 246.54H195.443V253.111H279.48V246.54Z" fill="white" stroke="black"/>
<path d="M236.512 213.946H237.463C237.982 213.946 238.154 213.427 238.154 212.476V189.651H236.512V213.946Z" fill="#1FB1FD" stroke="black"/>
<path d="M209.277 120.052C208.672 120.139 208.154 120.139 207.635 120.225" stroke="black"/>
<path d="M243.256 120.918C242.737 120.831 242.132 120.745 241.613 120.658" stroke="black"/>
<path d="M128.871 143.656C128.266 143.656 127.747 143.656 127.229 143.656" stroke="black"/>
<path d="M43.797 118.582C43.2782 118.582 42.673 118.582 42.1543 118.669" stroke="black"/>
</svg>
