<svg width="400" height="300" viewBox="0 0 400 300" fill="none" xmlns="http://www.w3.org/2000/svg">
<g clip-path="url(#clip0)">
<rect width="400" height="300" fill="#0A72B8"/>
<path d="M400 0H0V228H400V0Z" fill="#0A72B8"/>
<mask id="path-2-outside-1" maskUnits="userSpaceOnUse" x="-2" y="-1" width="444" height="201" fill="black">
<rect fill="white" x="-2" y="-1" width="444" height="201"/>
<path d="M20.9506 15.8471L21.9811 12.5647H27.378L28.4085 15.8471H32.4695L27.1948 0.213737H22.1643L16.8896 15.8471H20.9506ZM22.8819 9.6945L24.6147 4.15261H24.7368L26.4772 9.6945H22.8819ZM34.1527 15.8471H44.4349V12.7784H37.9312V0.213737H34.1527V15.8471ZM46.391 15.8471H56.6733V12.7784H50.1696V0.213737H46.391V15.8471ZM69.0262 15.8471C73.7894 15.8471 76.7436 12.9082 76.7436 8.02277C76.7436 3.14499 73.7894 0.213737 69.0185 0.213737H63.2476V15.8471H69.0262ZM67.0262 12.6258V3.43506H68.8277C71.5147 3.43506 72.9574 4.65641 72.9574 8.02277C72.9574 11.4044 71.5147 12.6258 68.8811 12.6258H67.0262ZM78.9497 15.8471H89.8503V12.7784H82.7282V9.56473H89.293V6.48845H82.7282V3.28239H89.8503V0.213737H78.9497V15.8471ZM92.2166 15.8471H95.9952V9.56473H102.209V6.48845H95.9952V3.28239H102.888V0.213737H92.2166V15.8471ZM108.569 0.213737H104.791V15.8471H108.569V0.213737ZM117.659 16.0684C118.705 16.0684 119.628 15.183 119.644 14.0837C119.628 12.9998 118.705 12.1219 117.659 12.1219C116.56 12.1219 115.659 12.9998 115.674 14.0837C115.659 15.183 116.56 16.0684 117.659 16.0684ZM129.123 15.8471L130.153 12.5647H135.55L136.58 15.8471H140.641L135.367 0.213737H130.336L125.062 15.8471H129.123ZM131.054 9.6945L132.787 4.15261H132.909L134.649 9.6945H131.054ZM142.325 15.8471H152.607V12.7784H146.103V0.213737H142.325V15.8471ZM154.563 15.8471H164.845V12.7784H158.342V0.213737H154.563V15.8471ZM179.87 4.90068H183.488C183.458 1.97707 181.129 0 177.496 0C173.923 0 171.351 1.94653 171.374 4.85489C171.366 7.22889 173.03 8.56475 175.732 9.18306L177.366 9.56473C179.084 9.96167 179.855 10.4273 179.87 11.3052C179.855 12.2593 178.961 12.9235 177.442 12.9235C175.771 12.9235 174.671 12.1448 174.587 10.6411H170.969C171.015 14.2975 173.557 16.0455 177.488 16.0455C181.381 16.0455 183.687 14.2822 183.702 11.3128C183.687 8.81665 182 7.28996 178.916 6.61058L177.572 6.30524C176.152 5.9999 175.252 5.52663 175.282 4.59535C175.29 3.7404 176.023 3.12209 177.488 3.12209C178.961 3.12209 179.771 3.7862 179.87 4.90068ZM195.068 0.213737V9.96931C195.068 11.5952 193.915 12.7632 192.228 12.7632C190.534 12.7632 189.389 11.5952 189.389 9.96931V0.213737H185.61V10.2975C185.61 13.7937 188.251 16.0455 192.228 16.0455C196.175 16.0455 198.839 13.7937 198.839 10.2975V0.213737H195.068ZM201.207 0.213737V15.8471H204.887V6.19074H205.016L208.772 15.7478H211.123L214.879 6.24417H215.009V15.8471H218.688V0.213737H214.009L210.039 9.89297H209.856L205.887 0.213737H201.207ZM221.045 0.213737V15.8471H224.724V6.19074H224.854L228.609 15.7478H230.961L234.716 6.24417H234.846V15.8471H238.525V0.213737H233.846L229.877 9.89297H229.693L225.724 0.213737H221.045ZM240.882 15.8471H251.783V12.7784H244.661V9.56473H251.225V6.48845H244.661V3.28239H251.783V0.213737H240.882V15.8471ZM254.149 15.8471H257.928V10.496H259.867L262.722 15.8471H266.844L263.599 9.89297C265.317 9.11436 266.309 7.58003 266.309 5.41976C266.309 2.20607 264.118 0.213737 260.607 0.213737H254.149V15.8471ZM257.928 7.51896V3.25949H259.79C261.485 3.25949 262.393 3.9694 262.393 5.41976C262.393 6.87012 261.485 7.51896 259.79 7.51896H257.928ZM275.099 16.0684C276.145 16.0684 277.069 15.183 277.084 14.0837C277.069 12.9998 276.145 12.1219 275.099 12.1219C274 12.1219 273.099 12.9998 273.114 14.0837C273.099 15.183 274 16.0684 275.099 16.0684ZM286.563 15.8471L287.593 12.5647H292.99L294.021 15.8471H298.082L292.807 0.213737H287.776L282.502 15.8471H286.563ZM288.494 9.6945L290.227 4.15261H290.349L292.089 9.6945H288.494ZM299.765 15.8471H310.047V12.7784H303.543V0.213737H299.765V15.8471ZM312.003 15.8471H322.285V12.7784H315.782V0.213737H312.003V15.8471ZM332.608 15.8471H336.241L339.058 6.36631H339.18L341.997 15.8471H345.638L350.18 0.213737H346.012L343.646 10.4807H343.516L340.821 0.213737H337.417L334.722 10.4578H334.592L332.234 0.213737H328.058L332.608 15.8471ZM351.741 15.8471H362.642V12.7784H355.52V9.56473H362.084V6.48845H355.52V3.28239H362.642V0.213737H351.741V15.8471ZM365.008 15.8471H375.29V12.7784H368.787V0.213737H365.008V15.8471ZM390.828 5.87777C390.447 2.13737 387.66 0 383.882 0C379.714 0 376.47 2.86255 376.47 8.03041C376.47 13.1754 379.638 16.0608 383.882 16.0608C388.172 16.0608 390.546 13.1448 390.828 10.3739L387.012 10.351C386.744 11.8548 385.615 12.7479 383.958 12.7479C381.729 12.7479 380.325 11.1372 380.325 8.03041C380.325 5.04572 381.699 3.31292 383.981 3.31292C385.699 3.31292 386.821 4.31291 387.012 5.87777H390.828ZM407.746 8.03041C407.746 2.86255 404.479 0 400.28 0C396.067 0 392.822 2.86255 392.822 8.03041C392.822 13.1754 396.067 16.0608 400.28 16.0608C404.479 16.0608 407.746 13.1983 407.746 8.03041ZM403.883 8.03041C403.883 11.0914 402.54 12.7479 400.28 12.7479C398.029 12.7479 396.677 11.0914 396.677 8.03041C396.677 4.96939 398.029 3.31292 400.28 3.31292C402.54 3.31292 403.883 4.96939 403.883 8.03041ZM409.952 0.213737V15.8471H413.631V6.19074H413.761L417.517 15.7478H419.868L423.624 6.24417H423.753V15.8471H427.433V0.213737H422.753L418.784 9.89297H418.601L414.631 0.213737H409.952ZM429.789 15.8471H440.69V12.7784H433.568V9.56473H440.133V6.48845H433.568V3.28239H440.69V0.213737H429.789V15.8471Z"/>
<path d="M19.4152 41.9492L20.4457 38.6668H25.8425L26.8731 41.9492H30.9341L25.6593 26.3158H20.6289L15.3542 41.9492H19.4152ZM21.3464 35.7966L23.0792 30.2547H23.2014L24.9418 35.7966H21.3464ZM32.6173 41.9492H42.8995V38.8805H36.3958V26.3158H32.6173V41.9492ZM44.8556 41.9492H55.1379V38.8805H48.6342V26.3158H44.8556V41.9492ZM67.4907 41.9492C72.254 41.9492 75.2082 39.0103 75.2082 34.1249C75.2082 29.2471 72.254 26.3158 67.4831 26.3158H61.7122V41.9492H67.4907ZM65.4908 38.7278V29.5371H67.2923C69.9792 29.5371 71.422 30.7585 71.422 34.1249C71.422 37.5065 69.9792 38.7278 67.3457 38.7278H65.4908ZM77.4142 41.9492H88.3148V38.8805H81.1928V35.6668H87.7576V32.5905H81.1928V29.3845H88.3148V26.3158H77.4142V41.9492ZM90.6812 41.9492H94.4598V35.6668H100.673V32.5905H94.4598V29.3845H101.353V26.3158H90.6812V41.9492ZM107.034 26.3158H103.255V41.9492H107.034V26.3158ZM116.124 42.1705C117.169 42.1705 118.093 41.2851 118.108 40.1858C118.093 39.1019 117.169 38.224 116.124 38.224C115.024 38.224 114.124 39.1019 114.139 40.1858C114.124 41.2851 115.024 42.1705 116.124 42.1705ZM127.587 41.9492L128.618 38.6668H134.014L135.045 41.9492H139.106L133.831 26.3158H128.801L123.526 41.9492H127.587ZM129.518 35.7966L131.251 30.2547H131.373L133.114 35.7966H129.518ZM140.789 41.9492H151.071V38.8805H144.568V26.3158H140.789V41.9492ZM153.028 41.9492H163.31V38.8805H156.806V26.3158H153.028V41.9492ZM178.334 31.0028H181.953C181.922 28.0792 179.594 26.1021 175.96 26.1021C172.388 26.1021 169.815 28.0486 169.838 30.957C169.831 33.331 171.495 34.6668 174.197 35.2851L175.831 35.6668C177.548 36.0638 178.319 36.5294 178.334 37.4073C178.319 38.3614 177.426 39.0256 175.907 39.0256C174.235 39.0256 173.136 38.2469 173.052 36.7431H169.434C169.48 40.3996 172.021 42.1476 175.953 42.1476C179.846 42.1476 182.151 40.3843 182.166 37.4149C182.151 34.9187 180.464 33.3921 177.38 32.7127L176.037 32.4073C174.617 32.102 173.716 31.6287 173.747 30.6974C173.754 29.8425 174.487 29.2242 175.953 29.2242C177.426 29.2242 178.235 29.8883 178.334 31.0028ZM193.533 26.3158V36.0714C193.533 37.6973 192.38 38.8652 190.693 38.8652C188.998 38.8652 187.853 37.6973 187.853 36.0714V26.3158H184.075V36.3996C184.075 39.8958 186.716 42.1476 190.693 42.1476C194.639 42.1476 197.304 39.8958 197.304 36.3996V26.3158H193.533ZM199.672 26.3158V41.9492H203.351V32.2928H203.481L207.237 41.8499H209.588L213.343 32.3463H213.473V41.9492H217.152V26.3158H212.473L208.504 35.9951H208.321L204.351 26.3158H199.672ZM219.509 26.3158V41.9492H223.189V32.2928H223.318L227.074 41.8499H229.425L233.181 32.3463H233.311V41.9492H236.99V26.3158H232.311L228.341 35.9951H228.158L224.189 26.3158H219.509ZM239.347 41.9492H250.247V38.8805H243.125V35.6668H249.69V32.5905H243.125V29.3845H250.247V26.3158H239.347V41.9492ZM252.614 41.9492H256.392V36.5981H258.331L261.186 41.9492H265.308L262.064 35.9951C263.781 35.2164 264.774 33.6821 264.774 31.5219C264.774 28.3082 262.583 26.3158 259.072 26.3158H252.614V41.9492ZM256.392 33.6211V29.3616H258.255C259.949 29.3616 260.858 30.0715 260.858 31.5219C260.858 32.9722 259.949 33.6211 258.255 33.6211H256.392ZM273.564 42.1705C274.61 42.1705 275.533 41.2851 275.548 40.1858C275.533 39.1019 274.61 38.224 273.564 38.224C272.465 38.224 271.564 39.1019 271.579 40.1858C271.564 41.2851 272.465 42.1705 273.564 42.1705ZM285.027 41.9492L286.058 38.6668H291.455L292.485 41.9492H296.546L291.271 26.3158H286.241L280.966 41.9492H285.027ZM286.959 35.7966L288.691 30.2547H288.814L290.554 35.7966H286.959ZM298.229 41.9492H308.512V38.8805H302.008V26.3158H298.229V41.9492ZM310.468 41.9492H320.75V38.8805H314.246V26.3158H310.468V41.9492ZM331.072 41.9492H334.706L337.523 32.4684H337.645L340.462 41.9492H344.103L348.645 26.3158H344.477L342.11 36.5828H341.981L339.286 26.3158H335.881L333.187 36.5599H333.057L330.698 26.3158H326.523L331.072 41.9492ZM350.206 41.9492H361.106V38.8805H353.984V35.6668H360.549V32.5905H353.984V29.3845H361.106V26.3158H350.206V41.9492ZM363.473 41.9492H373.755V38.8805H367.251V26.3158H363.473V41.9492ZM389.293 31.9799C388.911 28.2395 386.125 26.1021 382.346 26.1021C378.178 26.1021 374.934 28.9646 374.934 34.1325C374.934 39.2775 378.102 42.1629 382.346 42.1629C386.636 42.1629 389.01 39.2469 389.293 36.476L385.476 36.4531C385.209 37.9569 384.079 38.85 382.423 38.85C380.194 38.85 378.789 37.2393 378.789 34.1325C378.789 31.1478 380.163 29.415 382.446 29.415C384.163 29.415 385.285 30.415 385.476 31.9799H389.293ZM406.21 34.1325C406.21 28.9646 402.943 26.1021 398.745 26.1021C394.531 26.1021 391.287 28.9646 391.287 34.1325C391.287 39.2775 394.531 42.1629 398.745 42.1629C402.943 42.1629 406.21 39.3004 406.21 34.1325ZM402.348 34.1325C402.348 37.1935 401.004 38.85 398.745 38.85C396.493 38.85 395.142 37.1935 395.142 34.1325C395.142 31.0715 396.493 29.415 398.745 29.415C401.004 29.415 402.348 31.0715 402.348 34.1325ZM408.417 26.3158V41.9492H412.096V32.2928H412.226L415.981 41.8499H418.332L422.088 32.3463H422.218V41.9492H425.897V26.3158H421.218L417.248 35.9951H417.065L413.096 26.3158H408.417ZM428.254 41.9492H439.155V38.8805H432.033V35.6668H438.597V32.5905H432.033V29.3845H439.155V26.3158H428.254V41.9492Z"/>
<path d="M17.8798 68.0513L18.9103 64.7689H24.3071L25.3377 68.0513H29.3987L24.1239 52.4179H19.0935L13.8188 68.0513H17.8798ZM19.811 61.8987L21.5438 56.3568H21.666L23.4064 61.8987H19.811ZM31.0818 68.0513H41.3641V64.9826H34.8604V52.4179H31.0818V68.0513ZM43.3202 68.0513H53.6025V64.9826H47.0988V52.4179H43.3202V68.0513ZM65.9553 68.0513C70.7186 68.0513 73.6728 65.1124 73.6728 60.227C73.6728 55.3492 70.7186 52.4179 65.9477 52.4179H60.1768V68.0513H65.9553ZM63.9553 64.8299V55.6392H65.7569C68.4438 55.6392 69.8866 56.8606 69.8866 60.227C69.8866 63.6086 68.4438 64.8299 65.8103 64.8299H63.9553ZM75.8788 68.0513H86.7794V64.9826H79.6574V61.7689H86.2222V58.6926H79.6574V55.4866H86.7794V52.4179H75.8788V68.0513ZM89.1458 68.0513H92.9243V61.7689H99.138V58.6926H92.9243V55.4866H99.8174V52.4179H89.1458V68.0513ZM105.499 52.4179H101.72V68.0513H105.499V52.4179ZM114.588 68.2726C115.634 68.2726 116.558 67.3871 116.573 66.2879C116.558 65.204 115.634 64.3261 114.588 64.3261C113.489 64.3261 112.588 65.204 112.603 66.2879C112.588 67.3871 113.489 68.2726 114.588 68.2726ZM126.052 68.0513L127.082 64.7689H132.479L133.51 68.0513H137.571L132.296 52.4179H127.265L121.991 68.0513H126.052ZM127.983 61.8987L129.716 56.3568H129.838L131.578 61.8987H127.983ZM139.254 68.0513H149.536V64.9826H143.032V52.4179H139.254V68.0513ZM151.492 68.0513H161.774V64.9826H155.271V52.4179H151.492V68.0513ZM176.799 57.1049H180.417C180.387 54.1812 178.058 52.2042 174.425 52.2042C170.852 52.2042 168.28 54.1507 168.303 57.0591C168.295 59.4331 169.959 60.7689 172.662 61.3872L174.295 61.7689C176.013 62.1659 176.784 62.6315 176.799 63.5093C176.784 64.4635 175.891 65.1276 174.372 65.1276C172.7 65.1276 171.601 64.349 171.517 62.8452H167.898C167.944 66.5017 170.486 68.2497 174.417 68.2497C178.31 68.2497 180.616 66.4864 180.631 63.517C180.616 61.0208 178.929 59.4941 175.845 58.8148L174.501 58.5094C173.081 58.2041 172.181 57.7308 172.211 56.7995C172.219 55.9446 172.952 55.3263 174.417 55.3263C175.891 55.3263 176.7 55.9904 176.799 57.1049ZM191.997 52.4179V62.1735C191.997 63.7994 190.845 64.9673 189.158 64.9673C187.463 64.9673 186.318 63.7994 186.318 62.1735V52.4179H182.539V62.5017C182.539 65.9979 185.18 68.2497 189.158 68.2497C193.104 68.2497 195.768 65.9979 195.768 62.5017V52.4179H191.997ZM198.136 52.4179V68.0513H201.816V58.3949H201.945L205.701 67.952H208.052L211.808 58.4484H211.938V68.0513H215.617V52.4179H210.938L206.968 62.0971H206.785L202.816 52.4179H198.136ZM217.974 52.4179V68.0513H221.653V58.3949H221.783L225.539 67.952H227.89L231.645 58.4484H231.775V68.0513H235.454V52.4179H230.775L226.806 62.0971H226.623L222.653 52.4179H217.974ZM237.811 68.0513H248.712V64.9826H241.59V61.7689H248.155V58.6926H241.59V55.4866H248.712V52.4179H237.811V68.0513ZM251.078 68.0513H254.857V62.7002H256.796L259.651 68.0513H263.773L260.529 62.0971C262.246 61.3185 263.238 59.7842 263.238 57.6239C263.238 54.4103 261.048 52.4179 257.536 52.4179H251.078V68.0513ZM254.857 59.7231V55.4637H256.719C258.414 55.4637 259.322 56.1736 259.322 57.6239C259.322 59.0743 258.414 59.7231 256.719 59.7231H254.857ZM272.028 68.2726C273.074 68.2726 273.998 67.3871 274.013 66.2879C273.998 65.204 273.074 64.3261 272.028 64.3261C270.929 64.3261 270.028 65.204 270.044 66.2879C270.028 67.3871 270.929 68.2726 272.028 68.2726ZM283.492 68.0513L284.522 64.7689H289.919L290.95 68.0513H295.011L289.736 52.4179H284.706L279.431 68.0513H283.492ZM285.423 61.8987L287.156 56.3568H287.278L289.019 61.8987H285.423ZM296.694 68.0513H306.976V64.9826H300.473V52.4179H296.694V68.0513ZM308.932 68.0513H319.215V64.9826H312.711V52.4179H308.932V68.0513ZM329.537 68.0513H333.17L335.987 58.5705H336.109L338.926 68.0513H342.567L347.109 52.4179H342.941L340.575 62.6849H340.445L337.751 52.4179H334.346L331.651 62.662H331.522L329.163 52.4179H324.987L329.537 68.0513ZM348.67 68.0513H359.571V64.9826H352.449V61.7689H359.014V58.6926H352.449V55.4866H359.571V52.4179H348.67V68.0513ZM361.937 68.0513H372.219V64.9826H365.716V52.4179H361.937V68.0513ZM387.757 58.0819C387.376 54.3416 384.59 52.2042 380.811 52.2042C376.643 52.2042 373.399 55.0667 373.399 60.2346C373.399 65.3795 376.567 68.265 380.811 68.265C385.101 68.265 387.475 65.349 387.757 62.5781L383.941 62.5552C383.673 64.059 382.544 64.9521 380.887 64.9521C378.658 64.9521 377.254 63.3414 377.254 60.2346C377.254 57.2499 378.628 55.5171 380.91 55.5171C382.628 55.5171 383.75 56.5171 383.941 58.0819H387.757ZM404.675 60.2346C404.675 55.0667 401.408 52.2042 397.21 52.2042C392.996 52.2042 389.752 55.0667 389.752 60.2346C389.752 65.3795 392.996 68.265 397.21 68.265C401.408 68.265 404.675 65.4024 404.675 60.2346ZM400.813 60.2346C400.813 63.2956 399.469 64.9521 397.21 64.9521C394.958 64.9521 393.607 63.2956 393.607 60.2346C393.607 57.1736 394.958 55.5171 397.21 55.5171C399.469 55.5171 400.813 57.1736 400.813 60.2346ZM406.881 52.4179V68.0513H410.56V58.3949H410.69L414.446 67.952H416.797L420.553 58.4484H420.682V68.0513H424.362V52.4179H419.682L415.713 62.0971H415.53L411.56 52.4179H406.881ZM426.719 68.0513H437.619V64.9826H430.497V61.7689H437.062V58.6926H430.497V55.4866H437.619V52.4179H426.719V68.0513Z"/>
<path d="M16.3443 94.1533L17.3749 90.871H22.7717L23.8022 94.1533H27.8632L22.5885 78.52H17.5581L12.2833 94.1533H16.3443ZM18.2756 88.0008L20.0084 82.4589H20.1305L21.871 88.0008H18.2756ZM29.5464 94.1533H39.8287V91.0847H33.325V78.52H29.5464V94.1533ZM41.7848 94.1533H52.0671V91.0847H45.5633V78.52H41.7848V94.1533ZM64.4199 94.1533C69.1832 94.1533 72.1373 91.2145 72.1373 86.329C72.1373 81.4513 69.1832 78.52 64.4123 78.52H58.6414V94.1533H64.4199ZM62.4199 90.932V81.7413H64.2214C66.9084 81.7413 68.3511 82.9627 68.3511 86.329C68.3511 89.7107 66.9084 90.932 64.2749 90.932H62.4199ZM74.3434 94.1533H85.244V91.0847H78.122V87.871H84.6868V84.7947H78.122V81.5887H85.244V78.52H74.3434V94.1533ZM87.6104 94.1533H91.3889V87.871H97.6026V84.7947H91.3889V81.5887H98.282V78.52H87.6104V94.1533ZM103.963 78.52H100.185V94.1533H103.963V78.52ZM113.053 94.3747C114.098 94.3747 115.022 93.4892 115.037 92.39C115.022 91.3061 114.098 90.4282 113.053 90.4282C111.953 90.4282 111.053 91.3061 111.068 92.39C111.053 93.4892 111.953 94.3747 113.053 94.3747ZM124.516 94.1533L125.547 90.871H130.944L131.974 94.1533H136.035L130.76 78.52H125.73L120.455 94.1533H124.516ZM126.448 88.0008L128.18 82.4589H128.302L130.043 88.0008H126.448ZM137.718 94.1533H148.001V91.0847H141.497V78.52H137.718V94.1533ZM149.957 94.1533H160.239V91.0847H153.735V78.52H149.957V94.1533ZM175.264 83.207H178.882C178.851 80.2833 176.523 78.3063 172.89 78.3063C169.317 78.3063 166.745 80.2528 166.767 83.1612C166.76 85.5352 168.424 86.871 171.126 87.4893L172.76 87.871C174.477 88.2679 175.248 88.7336 175.264 89.6114C175.248 90.5656 174.355 91.2297 172.836 91.2297C171.164 91.2297 170.065 90.4511 169.981 88.9473H166.363C166.409 92.6038 168.951 94.3518 172.882 94.3518C176.775 94.3518 179.08 92.5885 179.096 89.6191C179.08 87.1229 177.393 85.5962 174.309 84.9169L172.966 84.6115C171.546 84.3062 170.645 83.8329 170.676 82.9016C170.683 82.0467 171.416 81.4284 172.882 81.4284C174.355 81.4284 175.164 82.0925 175.264 83.207ZM190.462 78.52V88.2756C190.462 89.9015 189.309 91.0694 187.622 91.0694C185.927 91.0694 184.782 89.9015 184.782 88.2756V78.52H181.004V88.6038C181.004 92.0999 183.645 94.3518 187.622 94.3518C191.569 94.3518 194.233 92.0999 194.233 88.6038V78.52H190.462ZM196.601 78.52V94.1533H200.28V84.497H200.41L204.166 94.0541H206.517L210.273 84.5504H210.402V94.1533H214.082V78.52H209.402L205.433 88.1992H205.25L201.28 78.52H196.601ZM216.438 78.52V94.1533H220.118V84.497H220.248L224.003 94.0541H226.354L230.11 84.5504H230.24V94.1533H233.919V78.52H229.24L225.27 88.1992H225.087L221.118 78.52H216.438ZM236.276 94.1533H247.176V91.0847H240.054V87.871H246.619V84.7947H240.054V81.5887H247.176V78.52H236.276V94.1533ZM249.543 94.1533H253.321V88.8023H255.26L258.115 94.1533H262.237L258.993 88.1992C260.711 87.4206 261.703 85.8863 261.703 83.726C261.703 80.5123 259.512 78.52 256.001 78.52H249.543V94.1533ZM253.321 85.8252V81.5658H255.184C256.879 81.5658 257.787 82.2757 257.787 83.726C257.787 85.1764 256.879 85.8252 255.184 85.8252H253.321ZM270.493 94.3747C271.539 94.3747 272.462 93.4892 272.478 92.39C272.462 91.3061 271.539 90.4282 270.493 90.4282C269.394 90.4282 268.493 91.3061 268.508 92.39C268.493 93.4892 269.394 94.3747 270.493 94.3747ZM281.956 94.1533L282.987 90.871H288.384L289.414 94.1533H293.475L288.201 78.52H283.17L277.895 94.1533H281.956ZM283.888 88.0008L285.621 82.4589H285.743L287.483 88.0008H283.888ZM295.159 94.1533H305.441V91.0847H298.937V78.52H295.159V94.1533ZM307.397 94.1533H317.679V91.0847H311.175V78.52H307.397V94.1533ZM328.002 94.1533H331.635L334.452 84.6726H334.574L337.391 94.1533H341.032L345.574 78.52H341.406L339.04 88.787H338.91L336.215 78.52H332.811L330.116 88.7641H329.986L327.628 78.52H323.452L328.002 94.1533ZM347.135 94.1533H358.035V91.0847H350.913V87.871H357.478V84.7947H350.913V81.5887H358.035V78.52H347.135V94.1533ZM360.402 94.1533H370.684V91.0847H364.18V78.52H360.402V94.1533ZM386.222 84.184C385.84 80.4436 383.054 78.3063 379.276 78.3063C375.108 78.3063 371.863 81.1688 371.863 86.3367C371.863 91.4816 375.031 94.3671 379.276 94.3671C383.566 94.3671 385.94 91.4511 386.222 88.6802L382.405 88.6572C382.138 90.161 381.008 91.0542 379.352 91.0542C377.123 91.0542 375.718 89.4435 375.718 86.3367C375.718 83.352 377.092 81.6192 379.375 81.6192C381.092 81.6192 382.214 82.6192 382.405 84.184H386.222ZM403.14 86.3367C403.14 81.1688 399.873 78.3063 395.674 78.3063C391.46 78.3063 388.216 81.1688 388.216 86.3367C388.216 91.4816 391.46 94.3671 395.674 94.3671C399.873 94.3671 403.14 91.5045 403.14 86.3367ZM399.277 86.3367C399.277 89.3977 397.934 91.0542 395.674 91.0542C393.422 91.0542 392.071 89.3977 392.071 86.3367C392.071 83.2757 393.422 81.6192 395.674 81.6192C397.934 81.6192 399.277 83.2757 399.277 86.3367ZM405.346 78.52V94.1533H409.025V84.497H409.155L412.91 94.0541H415.262L419.017 84.5504H419.147V94.1533H422.826V78.52H418.147L414.178 88.1992H413.994L410.025 78.52H405.346ZM425.183 94.1533H436.084V91.0847H428.962V87.871H435.527V84.7947H428.962V81.5887H436.084V78.52H425.183V94.1533Z"/>
<path d="M14.8089 120.255L15.8394 116.973H21.2363L22.2668 120.255H26.3278L21.0531 104.622H16.0226L10.7479 120.255H14.8089ZM16.7402 114.103L18.473 108.561H18.5951L20.3356 114.103H16.7402ZM28.011 120.255H38.2933V117.187H31.7896V104.622H28.011V120.255ZM40.2494 120.255H50.5316V117.187H44.0279V104.622H40.2494V120.255ZM62.8845 120.255C67.6478 120.255 70.6019 117.317 70.6019 112.431C70.6019 107.553 67.6478 104.622 62.8769 104.622H57.1059V120.255H62.8845ZM60.8845 117.034V107.843H62.686C65.373 107.843 66.8157 109.065 66.8157 112.431C66.8157 115.813 65.373 117.034 62.7395 117.034H60.8845ZM72.808 120.255H83.7086V117.187H76.5866V113.973H83.1513V110.897H76.5866V107.691H83.7086V104.622H72.808V120.255ZM86.075 120.255H89.8535V113.973H96.0672V110.897H89.8535V107.691H96.7465V104.622H86.075V120.255ZM102.428 104.622H98.6492V120.255H102.428V104.622ZM111.517 120.477C112.563 120.477 113.487 119.591 113.502 118.492C113.487 117.408 112.563 116.53 111.517 116.53C110.418 116.53 109.517 117.408 109.533 118.492C109.517 119.591 110.418 120.477 111.517 120.477ZM122.981 120.255L124.011 116.973H129.408L130.439 120.255H134.5L129.225 104.622H124.195L118.92 120.255H122.981ZM124.912 114.103L126.645 108.561H126.767L128.507 114.103H124.912ZM136.183 120.255H146.465V117.187H139.961V104.622H136.183V120.255ZM148.421 120.255H158.704V117.187H152.2V104.622H148.421V120.255ZM173.728 109.309H177.346C177.316 106.385 174.988 104.408 171.354 104.408C167.782 104.408 165.209 106.355 165.232 109.263C165.224 111.637 166.889 112.973 169.591 113.591L171.224 113.973C172.942 114.37 173.713 114.836 173.728 115.714C173.713 116.668 172.82 117.332 171.301 117.332C169.629 117.332 168.53 116.553 168.446 115.049H164.827C164.873 118.706 167.415 120.454 171.346 120.454C175.24 120.454 177.545 118.691 177.56 115.721C177.545 113.225 175.858 111.698 172.774 111.019L171.43 110.714C170.011 110.408 169.11 109.935 169.14 109.004C169.148 108.149 169.881 107.53 171.346 107.53C172.82 107.53 173.629 108.195 173.728 109.309ZM188.926 104.622V114.378C188.926 116.004 187.774 117.172 186.087 117.172C184.392 117.172 183.247 116.004 183.247 114.378V104.622H179.468V114.706C179.468 118.202 182.11 120.454 186.087 120.454C190.033 120.454 192.697 118.202 192.697 114.706V104.622H188.926ZM195.066 104.622V120.255H198.745V110.599H198.875L202.63 120.156H204.981L208.737 110.653H208.867V120.255H212.546V104.622H207.867L203.897 114.301H203.714L199.745 104.622H195.066ZM214.903 104.622V120.255H218.582V110.599H218.712L222.468 120.156H224.819L228.575 110.653H228.704V120.255H232.384V104.622H227.704L223.735 114.301H223.552L219.582 104.622H214.903ZM234.741 120.255H245.641V117.187H238.519V113.973H245.084V110.897H238.519V107.691H245.641V104.622H234.741V120.255ZM248.007 120.255H251.786V114.904H253.725L256.58 120.255H260.702L257.458 114.301C259.175 113.523 260.168 111.988 260.168 109.828C260.168 106.614 257.977 104.622 254.465 104.622H248.007V120.255ZM251.786 111.927V107.668H253.649C255.343 107.668 256.252 108.378 256.252 109.828C256.252 111.278 255.343 111.927 253.649 111.927H251.786ZM268.958 120.477C270.003 120.477 270.927 119.591 270.942 118.492C270.927 117.408 270.003 116.53 268.958 116.53C267.858 116.53 266.958 117.408 266.973 118.492C266.958 119.591 267.858 120.477 268.958 120.477ZM280.421 120.255L281.452 116.973H286.848L287.879 120.255H291.94L286.665 104.622H281.635L276.36 120.255H280.421ZM282.352 114.103L284.085 108.561H284.207L285.948 114.103H282.352ZM293.623 120.255H303.905V117.187H297.402V104.622H293.623V120.255ZM305.862 120.255H316.144V117.187H309.64V104.622H305.862V120.255ZM326.466 120.255H330.1L332.916 110.775H333.039L335.855 120.255H339.496L344.038 104.622H339.87L337.504 114.889H337.374L334.68 104.622H331.275L328.581 114.866H328.451L326.092 104.622H321.917L326.466 120.255ZM345.599 120.255H356.5V117.187H349.378V113.973H355.943V110.897H349.378V107.691H356.5V104.622H345.599V120.255ZM358.866 120.255H369.149V117.187H362.645V104.622H358.866V120.255ZM384.687 110.286C384.305 106.546 381.519 104.408 377.74 104.408C373.572 104.408 370.328 107.271 370.328 112.439C370.328 117.584 373.496 120.469 377.74 120.469C382.03 120.469 384.404 117.553 384.687 114.782L380.87 114.759C380.603 116.263 379.473 117.156 377.816 117.156C375.587 117.156 374.183 115.546 374.183 112.439C374.183 109.454 375.557 107.721 377.839 107.721C379.557 107.721 380.679 108.721 380.87 110.286H384.687ZM401.604 112.439C401.604 107.271 398.337 104.408 394.139 104.408C389.925 104.408 386.681 107.271 386.681 112.439C386.681 117.584 389.925 120.469 394.139 120.469C398.337 120.469 401.604 117.607 401.604 112.439ZM397.742 112.439C397.742 115.5 396.398 117.156 394.139 117.156C391.887 117.156 390.536 115.5 390.536 112.439C390.536 109.378 391.887 107.721 394.139 107.721C396.398 107.721 397.742 109.378 397.742 112.439ZM403.81 104.622V120.255H407.49V110.599H407.619L411.375 120.156H413.726L417.482 110.653H417.612V120.255H421.291V104.622H416.612L412.642 114.301H412.459L408.49 104.622H403.81ZM423.648 120.255H434.548V117.187H427.426V113.973H433.991V110.897H427.426V107.691H434.548V104.622H423.648V120.255Z"/>
<path d="M13.2735 146.358L14.304 143.075H19.7009L20.7314 146.358H24.7924L19.5177 130.724H14.4872L9.2125 146.358H13.2735ZM15.2048 140.205L16.9376 134.663H17.0597L18.8001 140.205H15.2048ZM26.4756 146.358H36.7579V143.289H30.2541V130.724H26.4756V146.358ZM38.7139 146.358H48.9962V143.289H42.4925V130.724H38.7139V146.358ZM61.3491 146.358C66.1124 146.358 69.0665 143.419 69.0665 138.533C69.0665 133.655 66.1124 130.724 61.3414 130.724H55.5705V146.358H61.3491ZM59.3491 143.136V133.946H61.1506C63.8376 133.946 65.2803 135.167 65.2803 138.533C65.2803 141.915 63.8376 143.136 61.204 143.136H59.3491ZM71.2726 146.358H82.1732V143.289H75.0511V140.075H81.6159V136.999H75.0511V133.793H82.1732V130.724H71.2726V146.358ZM84.5395 146.358H88.3181V140.075H94.5317V136.999H88.3181V133.793H95.2111V130.724H84.5395V146.358ZM100.892 130.724H97.1138V146.358H100.892V130.724ZM109.982 146.579C111.028 146.579 111.951 145.693 111.967 144.594C111.951 143.51 111.028 142.632 109.982 142.632C108.883 142.632 107.982 143.51 107.997 144.594C107.982 145.693 108.883 146.579 109.982 146.579ZM121.445 146.358L122.476 143.075H127.873L128.903 146.358H132.964L127.69 130.724H122.659L117.384 146.358H121.445ZM123.377 140.205L125.109 134.663H125.232L126.972 140.205H123.377ZM134.648 146.358H144.93V143.289H138.426V130.724H134.648V146.358ZM146.886 146.358H157.168V143.289H150.664V130.724H146.886V146.358ZM172.193 135.411H175.811C175.78 132.488 173.452 130.51 169.819 130.51C166.246 130.51 163.674 132.457 163.697 135.365C163.689 137.739 165.353 139.075 168.055 139.694L169.689 140.075C171.406 140.472 172.177 140.938 172.193 141.816C172.177 142.77 171.284 143.434 169.765 143.434C168.094 143.434 166.994 142.655 166.91 141.152H163.292C163.338 144.808 165.88 146.556 169.811 146.556C173.704 146.556 176.009 144.793 176.025 141.823C176.009 139.327 174.322 137.8 171.239 137.121L169.895 136.816C168.475 136.51 167.574 136.037 167.605 135.106C167.613 134.251 168.345 133.633 169.811 133.633C171.284 133.633 172.093 134.297 172.193 135.411ZM187.391 130.724V140.48C187.391 142.106 186.238 143.274 184.551 143.274C182.857 143.274 181.712 142.106 181.712 140.48V130.724H177.933V140.808C177.933 144.304 180.574 146.556 184.551 146.556C188.498 146.556 191.162 144.304 191.162 140.808V130.724H187.391ZM193.53 130.724V146.358H197.209V136.701H197.339L201.095 146.258H203.446L207.202 136.755H207.331V146.358H211.011V130.724H206.331L202.362 140.403H202.179L198.209 130.724H193.53ZM213.368 130.724V146.358H217.047V136.701H217.177L220.932 146.258H223.283L227.039 136.755H227.169V146.358H230.848V130.724H226.169L222.2 140.403H222.016L218.047 130.724H213.368ZM233.205 146.358H244.106V143.289H236.984V140.075H243.548V136.999H236.984V133.793H244.106V130.724H233.205V146.358ZM246.472 146.358H250.251V141.006H252.19L255.044 146.358H259.166L255.922 140.403C257.64 139.625 258.632 138.09 258.632 135.93C258.632 132.717 256.441 130.724 252.93 130.724H246.472V146.358ZM250.251 138.029V133.77H252.113C253.808 133.77 254.716 134.48 254.716 135.93C254.716 137.381 253.808 138.029 252.113 138.029H250.251ZM267.422 146.579C268.468 146.579 269.392 145.693 269.407 144.594C269.392 143.51 268.468 142.632 267.422 142.632C266.323 142.632 265.422 143.51 265.437 144.594C265.422 145.693 266.323 146.579 267.422 146.579ZM278.886 146.358L279.916 143.075H285.313L286.344 146.358H290.405L285.13 130.724H280.099L274.825 146.358H278.886ZM280.817 140.205L282.55 134.663H282.672L284.412 140.205H280.817ZM292.088 146.358H302.37V143.289H295.866V130.724H292.088V146.358ZM304.326 146.358H314.608V143.289H308.105V130.724H304.326V146.358ZM324.931 146.358H328.564L331.381 136.877H331.503L334.32 146.358H337.961L342.503 130.724H338.335L335.969 140.991H335.839L333.144 130.724H329.74L327.045 140.968H326.915L324.557 130.724H320.381L324.931 146.358ZM344.064 146.358H354.965V143.289H347.843V140.075H354.407V136.999H347.843V133.793H354.965V130.724H344.064V146.358ZM357.331 146.358H367.613V143.289H361.11V130.724H357.331V146.358ZM383.151 136.388C382.769 132.648 379.983 130.51 376.205 130.51C372.037 130.51 368.793 133.373 368.793 138.541C368.793 143.686 371.96 146.571 376.205 146.571C380.495 146.571 382.869 143.655 383.151 140.884L379.334 140.861C379.067 142.365 377.937 143.258 376.281 143.258C374.052 143.258 372.647 141.648 372.647 138.541C372.647 135.556 374.022 133.823 376.304 133.823C378.021 133.823 379.144 134.823 379.334 136.388H383.151ZM400.069 138.541C400.069 133.373 396.802 130.51 392.603 130.51C388.39 130.51 385.145 133.373 385.145 138.541C385.145 143.686 388.39 146.571 392.603 146.571C396.802 146.571 400.069 143.709 400.069 138.541ZM396.206 138.541C396.206 141.602 394.863 143.258 392.603 143.258C390.351 143.258 389 141.602 389 138.541C389 135.48 390.351 133.823 392.603 133.823C394.863 133.823 396.206 135.48 396.206 138.541ZM402.275 130.724V146.358H405.954V136.701H406.084L409.84 146.258H412.191L415.946 136.755H416.076V146.358H419.756V130.724H415.076L411.107 140.403H410.924L406.954 130.724H402.275ZM422.112 146.358H433.013V143.289H425.891V140.075H432.456V136.999H425.891V133.793H433.013V130.724H422.112V146.358Z"/>
<path d="M11.7381 172.46L12.7686 169.177H18.1655L19.196 172.46H23.257L17.9823 156.826H12.9518L7.67708 172.46H11.7381ZM13.6694 166.307L15.4022 160.765H15.5243L17.2647 166.307H13.6694ZM24.9402 172.46H35.2224V169.391H28.7187V156.826H24.9402V172.46ZM37.1785 172.46H47.4608V169.391H40.9571V156.826H37.1785V172.46ZM59.8137 172.46C64.5769 172.46 67.5311 169.521 67.5311 164.635C67.5311 159.758 64.5769 156.826 59.806 156.826H54.0351V172.46H59.8137ZM57.8137 169.238V160.048H59.6152C62.3022 160.048 63.7449 161.269 63.7449 164.635C63.7449 168.017 62.3022 169.238 59.6686 169.238H57.8137ZM69.7372 172.46H80.6377V169.391H73.5157V166.177H80.0805V163.101H73.5157V159.895H80.6377V156.826H69.7372V172.46ZM83.0041 172.46H86.7827V166.177H92.9963V163.101H86.7827V159.895H93.6757V156.826H83.0041V172.46ZM99.3569 156.826H95.5783V172.46H99.3569V156.826ZM108.446 172.681C109.492 172.681 110.416 171.796 110.431 170.696C110.416 169.612 109.492 168.734 108.446 168.734C107.347 168.734 106.446 169.612 106.462 170.696C106.446 171.796 107.347 172.681 108.446 172.681ZM119.91 172.46L120.941 169.177H126.337L127.368 172.46H131.429L126.154 156.826H121.124L115.849 172.46H119.91ZM121.841 166.307L123.574 160.765H123.696L125.437 166.307H121.841ZM133.112 172.46H143.394V169.391H136.891V156.826H133.112V172.46ZM145.35 172.46H155.633V169.391H149.129V156.826H145.35V172.46ZM170.657 161.513H174.276C174.245 158.59 171.917 156.613 168.283 156.613C164.711 156.613 162.138 158.559 162.161 161.467C162.154 163.841 163.818 165.177 166.52 165.796L168.154 166.177C169.871 166.574 170.642 167.04 170.657 167.918C170.642 168.872 169.749 169.536 168.23 169.536C166.558 169.536 165.459 168.757 165.375 167.254H161.757C161.802 170.91 164.344 172.658 168.276 172.658C172.169 172.658 174.474 170.895 174.489 167.925C174.474 165.429 172.787 163.902 169.703 163.223L168.36 162.918C166.94 162.612 166.039 162.139 166.07 161.208C166.077 160.353 166.81 159.735 168.276 159.735C169.749 159.735 170.558 160.399 170.657 161.513ZM185.856 156.826V166.582C185.856 168.208 184.703 169.376 183.016 169.376C181.321 169.376 180.176 168.208 180.176 166.582V156.826H176.398V166.91C176.398 170.406 179.039 172.658 183.016 172.658C186.962 172.658 189.626 170.406 189.626 166.91V156.826H185.856ZM191.995 156.826V172.46H195.674V162.803H195.804L199.56 172.36H201.911L205.666 162.857H205.796V172.46H209.475V156.826H204.796L200.827 166.506H200.643L196.674 156.826H191.995ZM211.832 156.826V172.46H215.512V162.803H215.641L219.397 172.36H221.748L225.504 162.857H225.633V172.46H229.313V156.826H224.634L220.664 166.506H220.481L216.512 156.826H211.832ZM231.67 172.46H242.57V169.391H235.448V166.177H242.013V163.101H235.448V159.895H242.57V156.826H231.67V172.46ZM244.937 172.46H248.715V167.109H250.654L253.509 172.46H257.631L254.387 166.506C256.104 165.727 257.097 164.193 257.097 162.032C257.097 158.819 254.906 156.826 251.395 156.826H244.937V172.46ZM248.715 164.132V159.872H250.578C252.272 159.872 253.181 160.582 253.181 162.032C253.181 163.483 252.272 164.132 250.578 164.132H248.715ZM265.887 172.681C266.932 172.681 267.856 171.796 267.871 170.696C267.856 169.612 266.932 168.734 265.887 168.734C264.787 168.734 263.887 169.612 263.902 170.696C263.887 171.796 264.787 172.681 265.887 172.681ZM277.35 172.46L278.381 169.177H283.778L284.808 172.46H288.869L283.594 156.826H278.564L273.289 172.46H277.35ZM279.281 166.307L281.014 160.765H281.136L282.877 166.307H279.281ZM290.552 172.46H300.835V169.391H294.331V156.826H290.552V172.46ZM302.791 172.46H313.073V169.391H306.569V156.826H302.791V172.46ZM323.395 172.46H327.029L329.846 162.979H329.968L332.784 172.46H336.426L340.968 156.826H336.8L334.433 167.093H334.304L331.609 156.826H328.204L325.51 167.07H325.38L323.021 156.826H318.846L323.395 172.46ZM342.529 172.46H353.429V169.391H346.307V166.177H352.872V163.101H346.307V159.895H353.429V156.826H342.529V172.46ZM355.796 172.46H366.078V169.391H359.574V156.826H355.796V172.46ZM381.616 162.49C381.234 158.75 378.448 156.613 374.669 156.613C370.501 156.613 367.257 159.475 367.257 164.643C367.257 169.788 370.425 172.673 374.669 172.673C378.959 172.673 381.333 169.757 381.616 166.986L377.799 166.964C377.532 168.467 376.402 169.36 374.746 169.36C372.517 169.36 371.112 167.75 371.112 164.643C371.112 161.658 372.486 159.925 374.769 159.925C376.486 159.925 377.608 160.925 377.799 162.49H381.616ZM398.533 164.643C398.533 159.475 395.266 156.613 391.068 156.613C386.854 156.613 383.61 159.475 383.61 164.643C383.61 169.788 386.854 172.673 391.068 172.673C395.266 172.673 398.533 169.811 398.533 164.643ZM394.671 164.643C394.671 167.704 393.327 169.36 391.068 169.36C388.816 169.36 387.465 167.704 387.465 164.643C387.465 161.582 388.816 159.925 391.068 159.925C393.327 159.925 394.671 161.582 394.671 164.643ZM400.739 156.826V172.46H404.419V162.803H404.549L408.304 172.36H410.655L414.411 162.857H414.541V172.46H418.22V156.826H413.541L409.571 166.506H409.388L405.419 156.826H400.739ZM420.577 172.46H431.478V169.391H424.355V166.177H430.92V163.101H424.355V159.895H431.478V156.826H420.577V172.46Z"/>
<path d="M4.061 198.562L5.09152 195.279H10.4884L11.5189 198.562H15.5799L10.3052 182.928H5.27472L0 198.562H4.061ZM5.99227 192.409L7.72507 186.867H7.8472L9.58763 192.409H5.99227ZM17.2631 198.562H27.5454V195.493H21.0416V182.928H17.2631V198.562ZM29.5014 198.562H39.7837V195.493H33.28V182.928H29.5014V198.562ZM52.1366 198.562C56.8998 198.562 59.854 195.623 59.854 190.737C59.854 185.86 56.8998 182.928 52.1289 182.928H46.358V198.562H52.1366ZM50.1366 195.34V186.15H51.9381C54.6251 186.15 56.0678 187.371 56.0678 190.737C56.0678 194.119 54.6251 195.34 51.9915 195.34H50.1366ZM62.0601 198.562H72.9607V195.493H65.8386V192.279H72.4034V189.203H65.8386V185.997H72.9607V182.928H62.0601V198.562ZM75.327 198.562H79.1056V192.279H85.3192V189.203H79.1056V185.997H85.9986V182.928H75.327V198.562ZM91.6798 182.928H87.9013V198.562H91.6798V182.928ZM100.769 198.783C101.815 198.783 102.739 197.898 102.754 196.798C102.739 195.714 101.815 194.837 100.769 194.837C99.6702 194.837 98.7694 195.714 98.7847 196.798C98.7694 197.898 99.6702 198.783 100.769 198.783ZM112.233 198.562L113.263 195.279H118.66L119.691 198.562H123.752L118.477 182.928H113.447L108.172 198.562H112.233ZM114.164 192.409L115.897 186.867H116.019L117.76 192.409H114.164ZM125.435 198.562H135.717V195.493H129.214V182.928H125.435V198.562ZM137.673 198.562H147.956V195.493H141.452V182.928H137.673V198.562ZM162.98 187.615H166.598C166.568 184.692 164.24 182.715 160.606 182.715C157.034 182.715 154.461 184.661 154.484 187.57C154.477 189.944 156.141 191.279 158.843 191.898L160.476 192.279C162.194 192.676 162.965 193.142 162.98 194.02C162.965 194.974 162.072 195.638 160.553 195.638C158.881 195.638 157.782 194.859 157.698 193.356H154.08C154.125 197.012 156.667 198.76 160.599 198.76C164.492 198.76 166.797 196.997 166.812 194.027C166.797 191.531 165.11 190.005 162.026 189.325L160.683 189.02C159.263 188.715 158.362 188.241 158.393 187.31C158.4 186.455 159.133 185.837 160.599 185.837C162.072 185.837 162.881 186.501 162.98 187.615ZM178.178 182.928V192.684C178.178 194.31 177.026 195.478 175.339 195.478C173.644 195.478 172.499 194.31 172.499 192.684V182.928H168.721V193.012C168.721 196.508 171.362 198.76 175.339 198.76C179.285 198.76 181.949 196.508 181.949 193.012V182.928H178.178ZM184.318 182.928V198.562H187.997V188.905H188.127L191.882 198.462H194.234L197.989 188.959H198.119V198.562H201.798V182.928H197.119L193.15 192.608H192.966L188.997 182.928H184.318ZM204.155 182.928V198.562H207.834V188.905H207.964L211.72 198.462H214.071L217.827 188.959H217.956V198.562H221.636V182.928H216.956L212.987 192.608H212.804L208.834 182.928H204.155ZM223.993 198.562H234.893V195.493H227.771V192.279H234.336V189.203H227.771V185.997H234.893V182.928H223.993V198.562ZM237.26 198.562H241.038V193.211H242.977L245.832 198.562H249.954L246.71 192.608C248.427 191.829 249.42 190.295 249.42 188.134C249.42 184.921 247.229 182.928 243.717 182.928H237.26V198.562ZM241.038 190.234V185.974H242.901C244.595 185.974 245.504 186.684 245.504 188.134C245.504 189.585 244.595 190.234 242.901 190.234H241.038ZM258.21 198.783C259.255 198.783 260.179 197.898 260.194 196.798C260.179 195.714 259.255 194.837 258.21 194.837C257.11 194.837 256.21 195.714 256.225 196.798C256.21 197.898 257.11 198.783 258.21 198.783ZM269.673 198.562L270.704 195.279H276.101L277.131 198.562H281.192L275.917 182.928H270.887L265.612 198.562H269.673ZM271.604 192.409L273.337 186.867H273.459L275.2 192.409H271.604ZM282.875 198.562H293.158V195.493H286.654V182.928H282.875V198.562ZM295.114 198.562H305.396V195.493H298.892V182.928H295.114V198.562ZM315.718 198.562H319.352L322.168 189.081H322.291L325.107 198.562H328.749L333.29 182.928H329.123L326.756 193.195H326.626L323.932 182.928H320.527L317.833 193.172H317.703L315.344 182.928H311.169L315.718 198.562ZM334.852 198.562H345.752V195.493H338.63V192.279H345.195V189.203H338.63V185.997H345.752V182.928H334.852V198.562ZM348.118 198.562H358.401V195.493H351.897V182.928H348.118V198.562ZM373.939 188.592C373.557 184.852 370.771 182.715 366.992 182.715C362.824 182.715 359.58 185.577 359.58 190.745C359.58 195.89 362.748 198.775 366.992 198.775C371.282 198.775 373.656 195.859 373.939 193.089L370.122 193.066C369.855 194.569 368.725 195.463 367.069 195.463C364.84 195.463 363.435 193.852 363.435 190.745C363.435 187.76 364.809 186.028 367.091 186.028C368.809 186.028 369.931 187.028 370.122 188.592H373.939ZM390.856 190.745C390.856 185.577 387.589 182.715 383.391 182.715C379.177 182.715 375.933 185.577 375.933 190.745C375.933 195.89 379.177 198.775 383.391 198.775C387.589 198.775 390.856 195.913 390.856 190.745ZM386.994 190.745C386.994 193.806 385.65 195.463 383.391 195.463C381.139 195.463 379.788 193.806 379.788 190.745C379.788 187.684 381.139 186.028 383.391 186.028C385.65 186.028 386.994 187.684 386.994 190.745ZM393.062 182.928V198.562H396.742V188.905H396.871L400.627 198.462H402.978L406.734 188.959H406.864V198.562H410.543V182.928H405.864L401.894 192.608H401.711L397.742 182.928H393.062ZM412.9 198.562H423.8V195.493H416.678V192.279H423.243V189.203H416.678V185.997H423.8V182.928H412.9V198.562Z"/>
</mask>
<path d="M20.9506 15.8471L21.9811 12.5647H27.378L28.4085 15.8471H32.4695L27.1948 0.213737H22.1643L16.8896 15.8471H20.9506ZM22.8819 9.6945L24.6147 4.15261H24.7368L26.4772 9.6945H22.8819ZM34.1527 15.8471H44.4349V12.7784H37.9312V0.213737H34.1527V15.8471ZM46.391 15.8471H56.6733V12.7784H50.1696V0.213737H46.391V15.8471ZM69.0262 15.8471C73.7894 15.8471 76.7436 12.9082 76.7436 8.02277C76.7436 3.14499 73.7894 0.213737 69.0185 0.213737H63.2476V15.8471H69.0262ZM67.0262 12.6258V3.43506H68.8277C71.5147 3.43506 72.9574 4.65641 72.9574 8.02277C72.9574 11.4044 71.5147 12.6258 68.8811 12.6258H67.0262ZM78.9497 15.8471H89.8503V12.7784H82.7282V9.56473H89.293V6.48845H82.7282V3.28239H89.8503V0.213737H78.9497V15.8471ZM92.2166 15.8471H95.9952V9.56473H102.209V6.48845H95.9952V3.28239H102.888V0.213737H92.2166V15.8471ZM108.569 0.213737H104.791V15.8471H108.569V0.213737ZM117.659 16.0684C118.705 16.0684 119.628 15.183 119.644 14.0837C119.628 12.9998 118.705 12.1219 117.659 12.1219C116.56 12.1219 115.659 12.9998 115.674 14.0837C115.659 15.183 116.56 16.0684 117.659 16.0684ZM129.123 15.8471L130.153 12.5647H135.55L136.58 15.8471H140.641L135.367 0.213737H130.336L125.062 15.8471H129.123ZM131.054 9.6945L132.787 4.15261H132.909L134.649 9.6945H131.054ZM142.325 15.8471H152.607V12.7784H146.103V0.213737H142.325V15.8471ZM154.563 15.8471H164.845V12.7784H158.342V0.213737H154.563V15.8471ZM179.87 4.90068H183.488C183.458 1.97707 181.129 0 177.496 0C173.923 0 171.351 1.94653 171.374 4.85489C171.366 7.22889 173.03 8.56475 175.732 9.18306L177.366 9.56473C179.084 9.96167 179.855 10.4273 179.87 11.3052C179.855 12.2593 178.961 12.9235 177.442 12.9235C175.771 12.9235 174.671 12.1448 174.587 10.6411H170.969C171.015 14.2975 173.557 16.0455 177.488 16.0455C181.381 16.0455 183.687 14.2822 183.702 11.3128C183.687 8.81665 182 7.28996 178.916 6.61058L177.572 6.30524C176.152 5.9999 175.252 5.52663 175.282 4.59535C175.29 3.7404 176.023 3.12209 177.488 3.12209C178.961 3.12209 179.771 3.7862 179.87 4.90068ZM195.068 0.213737V9.96931C195.068 11.5952 193.915 12.7632 192.228 12.7632C190.534 12.7632 189.389 11.5952 189.389 9.96931V0.213737H185.61V10.2975C185.61 13.7937 188.251 16.0455 192.228 16.0455C196.175 16.0455 198.839 13.7937 198.839 10.2975V0.213737H195.068ZM201.207 0.213737V15.8471H204.887V6.19074H205.016L208.772 15.7478H211.123L214.879 6.24417H215.009V15.8471H218.688V0.213737H214.009L210.039 9.89297H209.856L205.887 0.213737H201.207ZM221.045 0.213737V15.8471H224.724V6.19074H224.854L228.609 15.7478H230.961L234.716 6.24417H234.846V15.8471H238.525V0.213737H233.846L229.877 9.89297H229.693L225.724 0.213737H221.045ZM240.882 15.8471H251.783V12.7784H244.661V9.56473H251.225V6.48845H244.661V3.28239H251.783V0.213737H240.882V15.8471ZM254.149 15.8471H257.928V10.496H259.867L262.722 15.8471H266.844L263.599 9.89297C265.317 9.11436 266.309 7.58003 266.309 5.41976C266.309 2.20607 264.118 0.213737 260.607 0.213737H254.149V15.8471ZM257.928 7.51896V3.25949H259.79C261.485 3.25949 262.393 3.9694 262.393 5.41976C262.393 6.87012 261.485 7.51896 259.79 7.51896H257.928ZM275.099 16.0684C276.145 16.0684 277.069 15.183 277.084 14.0837C277.069 12.9998 276.145 12.1219 275.099 12.1219C274 12.1219 273.099 12.9998 273.114 14.0837C273.099 15.183 274 16.0684 275.099 16.0684ZM286.563 15.8471L287.593 12.5647H292.99L294.021 15.8471H298.082L292.807 0.213737H287.776L282.502 15.8471H286.563ZM288.494 9.6945L290.227 4.15261H290.349L292.089 9.6945H288.494ZM299.765 15.8471H310.047V12.7784H303.543V0.213737H299.765V15.8471ZM312.003 15.8471H322.285V12.7784H315.782V0.213737H312.003V15.8471ZM332.608 15.8471H336.241L339.058 6.36631H339.18L341.997 15.8471H345.638L350.18 0.213737H346.012L343.646 10.4807H343.516L340.821 0.213737H337.417L334.722 10.4578H334.592L332.234 0.213737H328.058L332.608 15.8471ZM351.741 15.8471H362.642V12.7784H355.52V9.56473H362.084V6.48845H355.52V3.28239H362.642V0.213737H351.741V15.8471ZM365.008 15.8471H375.29V12.7784H368.787V0.213737H365.008V15.8471ZM390.828 5.87777C390.447 2.13737 387.66 0 383.882 0C379.714 0 376.47 2.86255 376.47 8.03041C376.47 13.1754 379.638 16.0608 383.882 16.0608C388.172 16.0608 390.546 13.1448 390.828 10.3739L387.012 10.351C386.744 11.8548 385.615 12.7479 383.958 12.7479C381.729 12.7479 380.325 11.1372 380.325 8.03041C380.325 5.04572 381.699 3.31292 383.981 3.31292C385.699 3.31292 386.821 4.31291 387.012 5.87777H390.828ZM407.746 8.03041C407.746 2.86255 404.479 0 400.28 0C396.067 0 392.822 2.86255 392.822 8.03041C392.822 13.1754 396.067 16.0608 400.28 16.0608C404.479 16.0608 407.746 13.1983 407.746 8.03041ZM403.883 8.03041C403.883 11.0914 402.54 12.7479 400.28 12.7479C398.029 12.7479 396.677 11.0914 396.677 8.03041C396.677 4.96939 398.029 3.31292 400.28 3.31292C402.54 3.31292 403.883 4.96939 403.883 8.03041ZM409.952 0.213737V15.8471H413.631V6.19074H413.761L417.517 15.7478H419.868L423.624 6.24417H423.753V15.8471H427.433V0.213737H422.753L418.784 9.89297H418.601L414.631 0.213737H409.952ZM429.789 15.8471H440.69V12.7784H433.568V9.56473H440.133V6.48845H433.568V3.28239H440.69V0.213737H429.789V15.8471Z" stroke="white" stroke-width="2" mask="url(#path-2-outside-1)"/>
<path d="M19.4152 41.9492L20.4457 38.6668H25.8425L26.8731 41.9492H30.9341L25.6593 26.3158H20.6289L15.3542 41.9492H19.4152ZM21.3464 35.7966L23.0792 30.2547H23.2014L24.9418 35.7966H21.3464ZM32.6173 41.9492H42.8995V38.8805H36.3958V26.3158H32.6173V41.9492ZM44.8556 41.9492H55.1379V38.8805H48.6342V26.3158H44.8556V41.9492ZM67.4907 41.9492C72.254 41.9492 75.2082 39.0103 75.2082 34.1249C75.2082 29.2471 72.254 26.3158 67.4831 26.3158H61.7122V41.9492H67.4907ZM65.4908 38.7278V29.5371H67.2923C69.9792 29.5371 71.422 30.7585 71.422 34.1249C71.422 37.5065 69.9792 38.7278 67.3457 38.7278H65.4908ZM77.4142 41.9492H88.3148V38.8805H81.1928V35.6668H87.7576V32.5905H81.1928V29.3845H88.3148V26.3158H77.4142V41.9492ZM90.6812 41.9492H94.4598V35.6668H100.673V32.5905H94.4598V29.3845H101.353V26.3158H90.6812V41.9492ZM107.034 26.3158H103.255V41.9492H107.034V26.3158ZM116.124 42.1705C117.169 42.1705 118.093 41.2851 118.108 40.1858C118.093 39.1019 117.169 38.224 116.124 38.224C115.024 38.224 114.124 39.1019 114.139 40.1858C114.124 41.2851 115.024 42.1705 116.124 42.1705ZM127.587 41.9492L128.618 38.6668H134.014L135.045 41.9492H139.106L133.831 26.3158H128.801L123.526 41.9492H127.587ZM129.518 35.7966L131.251 30.2547H131.373L133.114 35.7966H129.518ZM140.789 41.9492H151.071V38.8805H144.568V26.3158H140.789V41.9492ZM153.028 41.9492H163.31V38.8805H156.806V26.3158H153.028V41.9492ZM178.334 31.0028H181.953C181.922 28.0792 179.594 26.1021 175.96 26.1021C172.388 26.1021 169.815 28.0486 169.838 30.957C169.831 33.331 171.495 34.6668 174.197 35.2851L175.831 35.6668C177.548 36.0638 178.319 36.5294 178.334 37.4073C178.319 38.3614 177.426 39.0256 175.907 39.0256C174.235 39.0256 173.136 38.2469 173.052 36.7431H169.434C169.48 40.3996 172.021 42.1476 175.953 42.1476C179.846 42.1476 182.151 40.3843 182.166 37.4149C182.151 34.9187 180.464 33.3921 177.38 32.7127L176.037 32.4073C174.617 32.102 173.716 31.6287 173.747 30.6974C173.754 29.8425 174.487 29.2242 175.953 29.2242C177.426 29.2242 178.235 29.8883 178.334 31.0028ZM193.533 26.3158V36.0714C193.533 37.6973 192.38 38.8652 190.693 38.8652C188.998 38.8652 187.853 37.6973 187.853 36.0714V26.3158H184.075V36.3996C184.075 39.8958 186.716 42.1476 190.693 42.1476C194.639 42.1476 197.304 39.8958 197.304 36.3996V26.3158H193.533ZM199.672 26.3158V41.9492H203.351V32.2928H203.481L207.237 41.8499H209.588L213.343 32.3463H213.473V41.9492H217.152V26.3158H212.473L208.504 35.9951H208.321L204.351 26.3158H199.672ZM219.509 26.3158V41.9492H223.189V32.2928H223.318L227.074 41.8499H229.425L233.181 32.3463H233.311V41.9492H236.99V26.3158H232.311L228.341 35.9951H228.158L224.189 26.3158H219.509ZM239.347 41.9492H250.247V38.8805H243.125V35.6668H249.69V32.5905H243.125V29.3845H250.247V26.3158H239.347V41.9492ZM252.614 41.9492H256.392V36.5981H258.331L261.186 41.9492H265.308L262.064 35.9951C263.781 35.2164 264.774 33.6821 264.774 31.5219C264.774 28.3082 262.583 26.3158 259.072 26.3158H252.614V41.9492ZM256.392 33.6211V29.3616H258.255C259.949 29.3616 260.858 30.0715 260.858 31.5219C260.858 32.9722 259.949 33.6211 258.255 33.6211H256.392ZM273.564 42.1705C274.61 42.1705 275.533 41.2851 275.548 40.1858C275.533 39.1019 274.61 38.224 273.564 38.224C272.465 38.224 271.564 39.1019 271.579 40.1858C271.564 41.2851 272.465 42.1705 273.564 42.1705ZM285.027 41.9492L286.058 38.6668H291.455L292.485 41.9492H296.546L291.271 26.3158H286.241L280.966 41.9492H285.027ZM286.959 35.7966L288.691 30.2547H288.814L290.554 35.7966H286.959ZM298.229 41.9492H308.512V38.8805H302.008V26.3158H298.229V41.9492ZM310.468 41.9492H320.75V38.8805H314.246V26.3158H310.468V41.9492ZM331.072 41.9492H334.706L337.523 32.4684H337.645L340.462 41.9492H344.103L348.645 26.3158H344.477L342.11 36.5828H341.981L339.286 26.3158H335.881L333.187 36.5599H333.057L330.698 26.3158H326.523L331.072 41.9492ZM350.206 41.9492H361.106V38.8805H353.984V35.6668H360.549V32.5905H353.984V29.3845H361.106V26.3158H350.206V41.9492ZM363.473 41.9492H373.755V38.8805H367.251V26.3158H363.473V41.9492ZM389.293 31.9799C388.911 28.2395 386.125 26.1021 382.346 26.1021C378.178 26.1021 374.934 28.9646 374.934 34.1325C374.934 39.2775 378.102 42.1629 382.346 42.1629C386.636 42.1629 389.01 39.2469 389.293 36.476L385.476 36.4531C385.209 37.9569 384.079 38.85 382.423 38.85C380.194 38.85 378.789 37.2393 378.789 34.1325C378.789 31.1478 380.163 29.415 382.446 29.415C384.163 29.415 385.285 30.415 385.476 31.9799H389.293ZM406.21 34.1325C406.21 28.9646 402.943 26.1021 398.745 26.1021C394.531 26.1021 391.287 28.9646 391.287 34.1325C391.287 39.2775 394.531 42.1629 398.745 42.1629C402.943 42.1629 406.21 39.3004 406.21 34.1325ZM402.348 34.1325C402.348 37.1935 401.004 38.85 398.745 38.85C396.493 38.85 395.142 37.1935 395.142 34.1325C395.142 31.0715 396.493 29.415 398.745 29.415C401.004 29.415 402.348 31.0715 402.348 34.1325ZM408.417 26.3158V41.9492H412.096V32.2928H412.226L415.981 41.8499H418.332L422.088 32.3463H422.218V41.9492H425.897V26.3158H421.218L417.248 35.9951H417.065L413.096 26.3158H408.417ZM428.254 41.9492H439.155V38.8805H432.033V35.6668H438.597V32.5905H432.033V29.3845H439.155V26.3158H428.254V41.9492Z" stroke="white" stroke-width="2" mask="url(#path-2-outside-1)"/>
<path d="M17.8798 68.0513L18.9103 64.7689H24.3071L25.3377 68.0513H29.3987L24.1239 52.4179H19.0935L13.8188 68.0513H17.8798ZM19.811 61.8987L21.5438 56.3568H21.666L23.4064 61.8987H19.811ZM31.0818 68.0513H41.3641V64.9826H34.8604V52.4179H31.0818V68.0513ZM43.3202 68.0513H53.6025V64.9826H47.0988V52.4179H43.3202V68.0513ZM65.9553 68.0513C70.7186 68.0513 73.6728 65.1124 73.6728 60.227C73.6728 55.3492 70.7186 52.4179 65.9477 52.4179H60.1768V68.0513H65.9553ZM63.9553 64.8299V55.6392H65.7569C68.4438 55.6392 69.8866 56.8606 69.8866 60.227C69.8866 63.6086 68.4438 64.8299 65.8103 64.8299H63.9553ZM75.8788 68.0513H86.7794V64.9826H79.6574V61.7689H86.2222V58.6926H79.6574V55.4866H86.7794V52.4179H75.8788V68.0513ZM89.1458 68.0513H92.9243V61.7689H99.138V58.6926H92.9243V55.4866H99.8174V52.4179H89.1458V68.0513ZM105.499 52.4179H101.72V68.0513H105.499V52.4179ZM114.588 68.2726C115.634 68.2726 116.558 67.3871 116.573 66.2879C116.558 65.204 115.634 64.3261 114.588 64.3261C113.489 64.3261 112.588 65.204 112.603 66.2879C112.588 67.3871 113.489 68.2726 114.588 68.2726ZM126.052 68.0513L127.082 64.7689H132.479L133.51 68.0513H137.571L132.296 52.4179H127.265L121.991 68.0513H126.052ZM127.983 61.8987L129.716 56.3568H129.838L131.578 61.8987H127.983ZM139.254 68.0513H149.536V64.9826H143.032V52.4179H139.254V68.0513ZM151.492 68.0513H161.774V64.9826H155.271V52.4179H151.492V68.0513ZM176.799 57.1049H180.417C180.387 54.1812 178.058 52.2042 174.425 52.2042C170.852 52.2042 168.28 54.1507 168.303 57.0591C168.295 59.4331 169.959 60.7689 172.662 61.3872L174.295 61.7689C176.013 62.1659 176.784 62.6315 176.799 63.5093C176.784 64.4635 175.891 65.1276 174.372 65.1276C172.7 65.1276 171.601 64.349 171.517 62.8452H167.898C167.944 66.5017 170.486 68.2497 174.417 68.2497C178.31 68.2497 180.616 66.4864 180.631 63.517C180.616 61.0208 178.929 59.4941 175.845 58.8148L174.501 58.5094C173.081 58.2041 172.181 57.7308 172.211 56.7995C172.219 55.9446 172.952 55.3263 174.417 55.3263C175.891 55.3263 176.7 55.9904 176.799 57.1049ZM191.997 52.4179V62.1735C191.997 63.7994 190.845 64.9673 189.158 64.9673C187.463 64.9673 186.318 63.7994 186.318 62.1735V52.4179H182.539V62.5017C182.539 65.9979 185.18 68.2497 189.158 68.2497C193.104 68.2497 195.768 65.9979 195.768 62.5017V52.4179H191.997ZM198.136 52.4179V68.0513H201.816V58.3949H201.945L205.701 67.952H208.052L211.808 58.4484H211.938V68.0513H215.617V52.4179H210.938L206.968 62.0971H206.785L202.816 52.4179H198.136ZM217.974 52.4179V68.0513H221.653V58.3949H221.783L225.539 67.952H227.89L231.645 58.4484H231.775V68.0513H235.454V52.4179H230.775L226.806 62.0971H226.623L222.653 52.4179H217.974ZM237.811 68.0513H248.712V64.9826H241.59V61.7689H248.155V58.6926H241.59V55.4866H248.712V52.4179H237.811V68.0513ZM251.078 68.0513H254.857V62.7002H256.796L259.651 68.0513H263.773L260.529 62.0971C262.246 61.3185 263.238 59.7842 263.238 57.6239C263.238 54.4103 261.048 52.4179 257.536 52.4179H251.078V68.0513ZM254.857 59.7231V55.4637H256.719C258.414 55.4637 259.322 56.1736 259.322 57.6239C259.322 59.0743 258.414 59.7231 256.719 59.7231H254.857ZM272.028 68.2726C273.074 68.2726 273.998 67.3871 274.013 66.2879C273.998 65.204 273.074 64.3261 272.028 64.3261C270.929 64.3261 270.028 65.204 270.044 66.2879C270.028 67.3871 270.929 68.2726 272.028 68.2726ZM283.492 68.0513L284.522 64.7689H289.919L290.95 68.0513H295.011L289.736 52.4179H284.706L279.431 68.0513H283.492ZM285.423 61.8987L287.156 56.3568H287.278L289.019 61.8987H285.423ZM296.694 68.0513H306.976V64.9826H300.473V52.4179H296.694V68.0513ZM308.932 68.0513H319.215V64.9826H312.711V52.4179H308.932V68.0513ZM329.537 68.0513H333.17L335.987 58.5705H336.109L338.926 68.0513H342.567L347.109 52.4179H342.941L340.575 62.6849H340.445L337.751 52.4179H334.346L331.651 62.662H331.522L329.163 52.4179H324.987L329.537 68.0513ZM348.67 68.0513H359.571V64.9826H352.449V61.7689H359.014V58.6926H352.449V55.4866H359.571V52.4179H348.67V68.0513ZM361.937 68.0513H372.219V64.9826H365.716V52.4179H361.937V68.0513ZM387.757 58.0819C387.376 54.3416 384.59 52.2042 380.811 52.2042C376.643 52.2042 373.399 55.0667 373.399 60.2346C373.399 65.3795 376.567 68.265 380.811 68.265C385.101 68.265 387.475 65.349 387.757 62.5781L383.941 62.5552C383.673 64.059 382.544 64.9521 380.887 64.9521C378.658 64.9521 377.254 63.3414 377.254 60.2346C377.254 57.2499 378.628 55.5171 380.91 55.5171C382.628 55.5171 383.75 56.5171 383.941 58.0819H387.757ZM404.675 60.2346C404.675 55.0667 401.408 52.2042 397.21 52.2042C392.996 52.2042 389.752 55.0667 389.752 60.2346C389.752 65.3795 392.996 68.265 397.21 68.265C401.408 68.265 404.675 65.4024 404.675 60.2346ZM400.813 60.2346C400.813 63.2956 399.469 64.9521 397.21 64.9521C394.958 64.9521 393.607 63.2956 393.607 60.2346C393.607 57.1736 394.958 55.5171 397.21 55.5171C399.469 55.5171 400.813 57.1736 400.813 60.2346ZM406.881 52.4179V68.0513H410.56V58.3949H410.69L414.446 67.952H416.797L420.553 58.4484H420.682V68.0513H424.362V52.4179H419.682L415.713 62.0971H415.53L411.56 52.4179H406.881ZM426.719 68.0513H437.619V64.9826H430.497V61.7689H437.062V58.6926H430.497V55.4866H437.619V52.4179H426.719V68.0513Z" stroke="white" stroke-width="2" mask="url(#path-2-outside-1)"/>
<path d="M16.3443 94.1533L17.3749 90.871H22.7717L23.8022 94.1533H27.8632L22.5885 78.52H17.5581L12.2833 94.1533H16.3443ZM18.2756 88.0008L20.0084 82.4589H20.1305L21.871 88.0008H18.2756ZM29.5464 94.1533H39.8287V91.0847H33.325V78.52H29.5464V94.1533ZM41.7848 94.1533H52.0671V91.0847H45.5633V78.52H41.7848V94.1533ZM64.4199 94.1533C69.1832 94.1533 72.1373 91.2145 72.1373 86.329C72.1373 81.4513 69.1832 78.52 64.4123 78.52H58.6414V94.1533H64.4199ZM62.4199 90.932V81.7413H64.2214C66.9084 81.7413 68.3511 82.9627 68.3511 86.329C68.3511 89.7107 66.9084 90.932 64.2749 90.932H62.4199ZM74.3434 94.1533H85.244V91.0847H78.122V87.871H84.6868V84.7947H78.122V81.5887H85.244V78.52H74.3434V94.1533ZM87.6104 94.1533H91.3889V87.871H97.6026V84.7947H91.3889V81.5887H98.282V78.52H87.6104V94.1533ZM103.963 78.52H100.185V94.1533H103.963V78.52ZM113.053 94.3747C114.098 94.3747 115.022 93.4892 115.037 92.39C115.022 91.3061 114.098 90.4282 113.053 90.4282C111.953 90.4282 111.053 91.3061 111.068 92.39C111.053 93.4892 111.953 94.3747 113.053 94.3747ZM124.516 94.1533L125.547 90.871H130.944L131.974 94.1533H136.035L130.76 78.52H125.73L120.455 94.1533H124.516ZM126.448 88.0008L128.18 82.4589H128.302L130.043 88.0008H126.448ZM137.718 94.1533H148.001V91.0847H141.497V78.52H137.718V94.1533ZM149.957 94.1533H160.239V91.0847H153.735V78.52H149.957V94.1533ZM175.264 83.207H178.882C178.851 80.2833 176.523 78.3063 172.89 78.3063C169.317 78.3063 166.745 80.2528 166.767 83.1612C166.76 85.5352 168.424 86.871 171.126 87.4893L172.76 87.871C174.477 88.2679 175.248 88.7336 175.264 89.6114C175.248 90.5656 174.355 91.2297 172.836 91.2297C171.164 91.2297 170.065 90.4511 169.981 88.9473H166.363C166.409 92.6038 168.951 94.3518 172.882 94.3518C176.775 94.3518 179.08 92.5885 179.096 89.6191C179.08 87.1229 177.393 85.5962 174.309 84.9169L172.966 84.6115C171.546 84.3062 170.645 83.8329 170.676 82.9016C170.683 82.0467 171.416 81.4284 172.882 81.4284C174.355 81.4284 175.164 82.0925 175.264 83.207ZM190.462 78.52V88.2756C190.462 89.9015 189.309 91.0694 187.622 91.0694C185.927 91.0694 184.782 89.9015 184.782 88.2756V78.52H181.004V88.6038C181.004 92.0999 183.645 94.3518 187.622 94.3518C191.569 94.3518 194.233 92.0999 194.233 88.6038V78.52H190.462ZM196.601 78.52V94.1533H200.28V84.497H200.41L204.166 94.0541H206.517L210.273 84.5504H210.402V94.1533H214.082V78.52H209.402L205.433 88.1992H205.25L201.28 78.52H196.601ZM216.438 78.52V94.1533H220.118V84.497H220.248L224.003 94.0541H226.354L230.11 84.5504H230.24V94.1533H233.919V78.52H229.24L225.27 88.1992H225.087L221.118 78.52H216.438ZM236.276 94.1533H247.176V91.0847H240.054V87.871H246.619V84.7947H240.054V81.5887H247.176V78.52H236.276V94.1533ZM249.543 94.1533H253.321V88.8023H255.26L258.115 94.1533H262.237L258.993 88.1992C260.711 87.4206 261.703 85.8863 261.703 83.726C261.703 80.5123 259.512 78.52 256.001 78.52H249.543V94.1533ZM253.321 85.8252V81.5658H255.184C256.879 81.5658 257.787 82.2757 257.787 83.726C257.787 85.1764 256.879 85.8252 255.184 85.8252H253.321ZM270.493 94.3747C271.539 94.3747 272.462 93.4892 272.478 92.39C272.462 91.3061 271.539 90.4282 270.493 90.4282C269.394 90.4282 268.493 91.3061 268.508 92.39C268.493 93.4892 269.394 94.3747 270.493 94.3747ZM281.956 94.1533L282.987 90.871H288.384L289.414 94.1533H293.475L288.201 78.52H283.17L277.895 94.1533H281.956ZM283.888 88.0008L285.621 82.4589H285.743L287.483 88.0008H283.888ZM295.159 94.1533H305.441V91.0847H298.937V78.52H295.159V94.1533ZM307.397 94.1533H317.679V91.0847H311.175V78.52H307.397V94.1533ZM328.002 94.1533H331.635L334.452 84.6726H334.574L337.391 94.1533H341.032L345.574 78.52H341.406L339.04 88.787H338.91L336.215 78.52H332.811L330.116 88.7641H329.986L327.628 78.52H323.452L328.002 94.1533ZM347.135 94.1533H358.035V91.0847H350.913V87.871H357.478V84.7947H350.913V81.5887H358.035V78.52H347.135V94.1533ZM360.402 94.1533H370.684V91.0847H364.18V78.52H360.402V94.1533ZM386.222 84.184C385.84 80.4436 383.054 78.3063 379.276 78.3063C375.108 78.3063 371.863 81.1688 371.863 86.3367C371.863 91.4816 375.031 94.3671 379.276 94.3671C383.566 94.3671 385.94 91.4511 386.222 88.6802L382.405 88.6572C382.138 90.161 381.008 91.0542 379.352 91.0542C377.123 91.0542 375.718 89.4435 375.718 86.3367C375.718 83.352 377.092 81.6192 379.375 81.6192C381.092 81.6192 382.214 82.6192 382.405 84.184H386.222ZM403.14 86.3367C403.14 81.1688 399.873 78.3063 395.674 78.3063C391.46 78.3063 388.216 81.1688 388.216 86.3367C388.216 91.4816 391.46 94.3671 395.674 94.3671C399.873 94.3671 403.14 91.5045 403.14 86.3367ZM399.277 86.3367C399.277 89.3977 397.934 91.0542 395.674 91.0542C393.422 91.0542 392.071 89.3977 392.071 86.3367C392.071 83.2757 393.422 81.6192 395.674 81.6192C397.934 81.6192 399.277 83.2757 399.277 86.3367ZM405.346 78.52V94.1533H409.025V84.497H409.155L412.91 94.0541H415.262L419.017 84.5504H419.147V94.1533H422.826V78.52H418.147L414.178 88.1992H413.994L410.025 78.52H405.346ZM425.183 94.1533H436.084V91.0847H428.962V87.871H435.527V84.7947H428.962V81.5887H436.084V78.52H425.183V94.1533Z" stroke="white" stroke-width="2" mask="url(#path-2-outside-1)"/>
<path d="M14.8089 120.255L15.8394 116.973H21.2363L22.2668 120.255H26.3278L21.0531 104.622H16.0226L10.7479 120.255H14.8089ZM16.7402 114.103L18.473 108.561H18.5951L20.3356 114.103H16.7402ZM28.011 120.255H38.2933V117.187H31.7896V104.622H28.011V120.255ZM40.2494 120.255H50.5316V117.187H44.0279V104.622H40.2494V120.255ZM62.8845 120.255C67.6478 120.255 70.6019 117.317 70.6019 112.431C70.6019 107.553 67.6478 104.622 62.8769 104.622H57.1059V120.255H62.8845ZM60.8845 117.034V107.843H62.686C65.373 107.843 66.8157 109.065 66.8157 112.431C66.8157 115.813 65.373 117.034 62.7395 117.034H60.8845ZM72.808 120.255H83.7086V117.187H76.5866V113.973H83.1513V110.897H76.5866V107.691H83.7086V104.622H72.808V120.255ZM86.075 120.255H89.8535V113.973H96.0672V110.897H89.8535V107.691H96.7465V104.622H86.075V120.255ZM102.428 104.622H98.6492V120.255H102.428V104.622ZM111.517 120.477C112.563 120.477 113.487 119.591 113.502 118.492C113.487 117.408 112.563 116.53 111.517 116.53C110.418 116.53 109.517 117.408 109.533 118.492C109.517 119.591 110.418 120.477 111.517 120.477ZM122.981 120.255L124.011 116.973H129.408L130.439 120.255H134.5L129.225 104.622H124.195L118.92 120.255H122.981ZM124.912 114.103L126.645 108.561H126.767L128.507 114.103H124.912ZM136.183 120.255H146.465V117.187H139.961V104.622H136.183V120.255ZM148.421 120.255H158.704V117.187H152.2V104.622H148.421V120.255ZM173.728 109.309H177.346C177.316 106.385 174.988 104.408 171.354 104.408C167.782 104.408 165.209 106.355 165.232 109.263C165.224 111.637 166.889 112.973 169.591 113.591L171.224 113.973C172.942 114.37 173.713 114.836 173.728 115.714C173.713 116.668 172.82 117.332 171.301 117.332C169.629 117.332 168.53 116.553 168.446 115.049H164.827C164.873 118.706 167.415 120.454 171.346 120.454C175.24 120.454 177.545 118.691 177.56 115.721C177.545 113.225 175.858 111.698 172.774 111.019L171.43 110.714C170.011 110.408 169.11 109.935 169.14 109.004C169.148 108.149 169.881 107.53 171.346 107.53C172.82 107.53 173.629 108.195 173.728 109.309ZM188.926 104.622V114.378C188.926 116.004 187.774 117.172 186.087 117.172C184.392 117.172 183.247 116.004 183.247 114.378V104.622H179.468V114.706C179.468 118.202 182.11 120.454 186.087 120.454C190.033 120.454 192.697 118.202 192.697 114.706V104.622H188.926ZM195.066 104.622V120.255H198.745V110.599H198.875L202.63 120.156H204.981L208.737 110.653H208.867V120.255H212.546V104.622H207.867L203.897 114.301H203.714L199.745 104.622H195.066ZM214.903 104.622V120.255H218.582V110.599H218.712L222.468 120.156H224.819L228.575 110.653H228.704V120.255H232.384V104.622H227.704L223.735 114.301H223.552L219.582 104.622H214.903ZM234.741 120.255H245.641V117.187H238.519V113.973H245.084V110.897H238.519V107.691H245.641V104.622H234.741V120.255ZM248.007 120.255H251.786V114.904H253.725L256.58 120.255H260.702L257.458 114.301C259.175 113.523 260.168 111.988 260.168 109.828C260.168 106.614 257.977 104.622 254.465 104.622H248.007V120.255ZM251.786 111.927V107.668H253.649C255.343 107.668 256.252 108.378 256.252 109.828C256.252 111.278 255.343 111.927 253.649 111.927H251.786ZM268.958 120.477C270.003 120.477 270.927 119.591 270.942 118.492C270.927 117.408 270.003 116.53 268.958 116.53C267.858 116.53 266.958 117.408 266.973 118.492C266.958 119.591 267.858 120.477 268.958 120.477ZM280.421 120.255L281.452 116.973H286.848L287.879 120.255H291.94L286.665 104.622H281.635L276.36 120.255H280.421ZM282.352 114.103L284.085 108.561H284.207L285.948 114.103H282.352ZM293.623 120.255H303.905V117.187H297.402V104.622H293.623V120.255ZM305.862 120.255H316.144V117.187H309.64V104.622H305.862V120.255ZM326.466 120.255H330.1L332.916 110.775H333.039L335.855 120.255H339.496L344.038 104.622H339.87L337.504 114.889H337.374L334.68 104.622H331.275L328.581 114.866H328.451L326.092 104.622H321.917L326.466 120.255ZM345.599 120.255H356.5V117.187H349.378V113.973H355.943V110.897H349.378V107.691H356.5V104.622H345.599V120.255ZM358.866 120.255H369.149V117.187H362.645V104.622H358.866V120.255ZM384.687 110.286C384.305 106.546 381.519 104.408 377.74 104.408C373.572 104.408 370.328 107.271 370.328 112.439C370.328 117.584 373.496 120.469 377.74 120.469C382.03 120.469 384.404 117.553 384.687 114.782L380.87 114.759C380.603 116.263 379.473 117.156 377.816 117.156C375.587 117.156 374.183 115.546 374.183 112.439C374.183 109.454 375.557 107.721 377.839 107.721C379.557 107.721 380.679 108.721 380.87 110.286H384.687ZM401.604 112.439C401.604 107.271 398.337 104.408 394.139 104.408C389.925 104.408 386.681 107.271 386.681 112.439C386.681 117.584 389.925 120.469 394.139 120.469C398.337 120.469 401.604 117.607 401.604 112.439ZM397.742 112.439C397.742 115.5 396.398 117.156 394.139 117.156C391.887 117.156 390.536 115.5 390.536 112.439C390.536 109.378 391.887 107.721 394.139 107.721C396.398 107.721 397.742 109.378 397.742 112.439ZM403.81 104.622V120.255H407.49V110.599H407.619L411.375 120.156H413.726L417.482 110.653H417.612V120.255H421.291V104.622H416.612L412.642 114.301H412.459L408.49 104.622H403.81ZM423.648 120.255H434.548V117.187H427.426V113.973H433.991V110.897H427.426V107.691H434.548V104.622H423.648V120.255Z" stroke="white" stroke-width="2" mask="url(#path-2-outside-1)"/>
<path d="M13.2735 146.358L14.304 143.075H19.7009L20.7314 146.358H24.7924L19.5177 130.724H14.4872L9.2125 146.358H13.2735ZM15.2048 140.205L16.9376 134.663H17.0597L18.8001 140.205H15.2048ZM26.4756 146.358H36.7579V143.289H30.2541V130.724H26.4756V146.358ZM38.7139 146.358H48.9962V143.289H42.4925V130.724H38.7139V146.358ZM61.3491 146.358C66.1124 146.358 69.0665 143.419 69.0665 138.533C69.0665 133.655 66.1124 130.724 61.3414 130.724H55.5705V146.358H61.3491ZM59.3491 143.136V133.946H61.1506C63.8376 133.946 65.2803 135.167 65.2803 138.533C65.2803 141.915 63.8376 143.136 61.204 143.136H59.3491ZM71.2726 146.358H82.1732V143.289H75.0511V140.075H81.6159V136.999H75.0511V133.793H82.1732V130.724H71.2726V146.358ZM84.5395 146.358H88.3181V140.075H94.5317V136.999H88.3181V133.793H95.2111V130.724H84.5395V146.358ZM100.892 130.724H97.1138V146.358H100.892V130.724ZM109.982 146.579C111.028 146.579 111.951 145.693 111.967 144.594C111.951 143.51 111.028 142.632 109.982 142.632C108.883 142.632 107.982 143.51 107.997 144.594C107.982 145.693 108.883 146.579 109.982 146.579ZM121.445 146.358L122.476 143.075H127.873L128.903 146.358H132.964L127.69 130.724H122.659L117.384 146.358H121.445ZM123.377 140.205L125.109 134.663H125.232L126.972 140.205H123.377ZM134.648 146.358H144.93V143.289H138.426V130.724H134.648V146.358ZM146.886 146.358H157.168V143.289H150.664V130.724H146.886V146.358ZM172.193 135.411H175.811C175.78 132.488 173.452 130.51 169.819 130.51C166.246 130.51 163.674 132.457 163.697 135.365C163.689 137.739 165.353 139.075 168.055 139.694L169.689 140.075C171.406 140.472 172.177 140.938 172.193 141.816C172.177 142.77 171.284 143.434 169.765 143.434C168.094 143.434 166.994 142.655 166.91 141.152H163.292C163.338 144.808 165.88 146.556 169.811 146.556C173.704 146.556 176.009 144.793 176.025 141.823C176.009 139.327 174.322 137.8 171.239 137.121L169.895 136.816C168.475 136.51 167.574 136.037 167.605 135.106C167.613 134.251 168.345 133.633 169.811 133.633C171.284 133.633 172.093 134.297 172.193 135.411ZM187.391 130.724V140.48C187.391 142.106 186.238 143.274 184.551 143.274C182.857 143.274 181.712 142.106 181.712 140.48V130.724H177.933V140.808C177.933 144.304 180.574 146.556 184.551 146.556C188.498 146.556 191.162 144.304 191.162 140.808V130.724H187.391ZM193.53 130.724V146.358H197.209V136.701H197.339L201.095 146.258H203.446L207.202 136.755H207.331V146.358H211.011V130.724H206.331L202.362 140.403H202.179L198.209 130.724H193.53ZM213.368 130.724V146.358H217.047V136.701H217.177L220.932 146.258H223.283L227.039 136.755H227.169V146.358H230.848V130.724H226.169L222.2 140.403H222.016L218.047 130.724H213.368ZM233.205 146.358H244.106V143.289H236.984V140.075H243.548V136.999H236.984V133.793H244.106V130.724H233.205V146.358ZM246.472 146.358H250.251V141.006H252.19L255.044 146.358H259.166L255.922 140.403C257.64 139.625 258.632 138.09 258.632 135.93C258.632 132.717 256.441 130.724 252.93 130.724H246.472V146.358ZM250.251 138.029V133.77H252.113C253.808 133.77 254.716 134.48 254.716 135.93C254.716 137.381 253.808 138.029 252.113 138.029H250.251ZM267.422 146.579C268.468 146.579 269.392 145.693 269.407 144.594C269.392 143.51 268.468 142.632 267.422 142.632C266.323 142.632 265.422 143.51 265.437 144.594C265.422 145.693 266.323 146.579 267.422 146.579ZM278.886 146.358L279.916 143.075H285.313L286.344 146.358H290.405L285.13 130.724H280.099L274.825 146.358H278.886ZM280.817 140.205L282.55 134.663H282.672L284.412 140.205H280.817ZM292.088 146.358H302.37V143.289H295.866V130.724H292.088V146.358ZM304.326 146.358H314.608V143.289H308.105V130.724H304.326V146.358ZM324.931 146.358H328.564L331.381 136.877H331.503L334.32 146.358H337.961L342.503 130.724H338.335L335.969 140.991H335.839L333.144 130.724H329.74L327.045 140.968H326.915L324.557 130.724H320.381L324.931 146.358ZM344.064 146.358H354.965V143.289H347.843V140.075H354.407V136.999H347.843V133.793H354.965V130.724H344.064V146.358ZM357.331 146.358H367.613V143.289H361.11V130.724H357.331V146.358ZM383.151 136.388C382.769 132.648 379.983 130.51 376.205 130.51C372.037 130.51 368.793 133.373 368.793 138.541C368.793 143.686 371.96 146.571 376.205 146.571C380.495 146.571 382.869 143.655 383.151 140.884L379.334 140.861C379.067 142.365 377.937 143.258 376.281 143.258C374.052 143.258 372.647 141.648 372.647 138.541C372.647 135.556 374.022 133.823 376.304 133.823C378.021 133.823 379.144 134.823 379.334 136.388H383.151ZM400.069 138.541C400.069 133.373 396.802 130.51 392.603 130.51C388.39 130.51 385.145 133.373 385.145 138.541C385.145 143.686 388.39 146.571 392.603 146.571C396.802 146.571 400.069 143.709 400.069 138.541ZM396.206 138.541C396.206 141.602 394.863 143.258 392.603 143.258C390.351 143.258 389 141.602 389 138.541C389 135.48 390.351 133.823 392.603 133.823C394.863 133.823 396.206 135.48 396.206 138.541ZM402.275 130.724V146.358H405.954V136.701H406.084L409.84 146.258H412.191L415.946 136.755H416.076V146.358H419.756V130.724H415.076L411.107 140.403H410.924L406.954 130.724H402.275ZM422.112 146.358H433.013V143.289H425.891V140.075H432.456V136.999H425.891V133.793H433.013V130.724H422.112V146.358Z" stroke="white" stroke-width="2" mask="url(#path-2-outside-1)"/>
<path d="M11.7381 172.46L12.7686 169.177H18.1655L19.196 172.46H23.257L17.9823 156.826H12.9518L7.67708 172.46H11.7381ZM13.6694 166.307L15.4022 160.765H15.5243L17.2647 166.307H13.6694ZM24.9402 172.46H35.2224V169.391H28.7187V156.826H24.9402V172.46ZM37.1785 172.46H47.4608V169.391H40.9571V156.826H37.1785V172.46ZM59.8137 172.46C64.5769 172.46 67.5311 169.521 67.5311 164.635C67.5311 159.758 64.5769 156.826 59.806 156.826H54.0351V172.46H59.8137ZM57.8137 169.238V160.048H59.6152C62.3022 160.048 63.7449 161.269 63.7449 164.635C63.7449 168.017 62.3022 169.238 59.6686 169.238H57.8137ZM69.7372 172.46H80.6377V169.391H73.5157V166.177H80.0805V163.101H73.5157V159.895H80.6377V156.826H69.7372V172.46ZM83.0041 172.46H86.7827V166.177H92.9963V163.101H86.7827V159.895H93.6757V156.826H83.0041V172.46ZM99.3569 156.826H95.5783V172.46H99.3569V156.826ZM108.446 172.681C109.492 172.681 110.416 171.796 110.431 170.696C110.416 169.612 109.492 168.734 108.446 168.734C107.347 168.734 106.446 169.612 106.462 170.696C106.446 171.796 107.347 172.681 108.446 172.681ZM119.91 172.46L120.941 169.177H126.337L127.368 172.46H131.429L126.154 156.826H121.124L115.849 172.46H119.91ZM121.841 166.307L123.574 160.765H123.696L125.437 166.307H121.841ZM133.112 172.46H143.394V169.391H136.891V156.826H133.112V172.46ZM145.35 172.46H155.633V169.391H149.129V156.826H145.35V172.46ZM170.657 161.513H174.276C174.245 158.59 171.917 156.613 168.283 156.613C164.711 156.613 162.138 158.559 162.161 161.467C162.154 163.841 163.818 165.177 166.52 165.796L168.154 166.177C169.871 166.574 170.642 167.04 170.657 167.918C170.642 168.872 169.749 169.536 168.23 169.536C166.558 169.536 165.459 168.757 165.375 167.254H161.757C161.802 170.91 164.344 172.658 168.276 172.658C172.169 172.658 174.474 170.895 174.489 167.925C174.474 165.429 172.787 163.902 169.703 163.223L168.36 162.918C166.94 162.612 166.039 162.139 166.07 161.208C166.077 160.353 166.81 159.735 168.276 159.735C169.749 159.735 170.558 160.399 170.657 161.513ZM185.856 156.826V166.582C185.856 168.208 184.703 169.376 183.016 169.376C181.321 169.376 180.176 168.208 180.176 166.582V156.826H176.398V166.91C176.398 170.406 179.039 172.658 183.016 172.658C186.962 172.658 189.626 170.406 189.626 166.91V156.826H185.856ZM191.995 156.826V172.46H195.674V162.803H195.804L199.56 172.36H201.911L205.666 162.857H205.796V172.46H209.475V156.826H204.796L200.827 166.506H200.643L196.674 156.826H191.995ZM211.832 156.826V172.46H215.512V162.803H215.641L219.397 172.36H221.748L225.504 162.857H225.633V172.46H229.313V156.826H224.634L220.664 166.506H220.481L216.512 156.826H211.832ZM231.67 172.46H242.57V169.391H235.448V166.177H242.013V163.101H235.448V159.895H242.57V156.826H231.67V172.46ZM244.937 172.46H248.715V167.109H250.654L253.509 172.46H257.631L254.387 166.506C256.104 165.727 257.097 164.193 257.097 162.032C257.097 158.819 254.906 156.826 251.395 156.826H244.937V172.46ZM248.715 164.132V159.872H250.578C252.272 159.872 253.181 160.582 253.181 162.032C253.181 163.483 252.272 164.132 250.578 164.132H248.715ZM265.887 172.681C266.932 172.681 267.856 171.796 267.871 170.696C267.856 169.612 266.932 168.734 265.887 168.734C264.787 168.734 263.887 169.612 263.902 170.696C263.887 171.796 264.787 172.681 265.887 172.681ZM277.35 172.46L278.381 169.177H283.778L284.808 172.46H288.869L283.594 156.826H278.564L273.289 172.46H277.35ZM279.281 166.307L281.014 160.765H281.136L282.877 166.307H279.281ZM290.552 172.46H300.835V169.391H294.331V156.826H290.552V172.46ZM302.791 172.46H313.073V169.391H306.569V156.826H302.791V172.46ZM323.395 172.46H327.029L329.846 162.979H329.968L332.784 172.46H336.426L340.968 156.826H336.8L334.433 167.093H334.304L331.609 156.826H328.204L325.51 167.07H325.38L323.021 156.826H318.846L323.395 172.46ZM342.529 172.46H353.429V169.391H346.307V166.177H352.872V163.101H346.307V159.895H353.429V156.826H342.529V172.46ZM355.796 172.46H366.078V169.391H359.574V156.826H355.796V172.46ZM381.616 162.49C381.234 158.75 378.448 156.613 374.669 156.613C370.501 156.613 367.257 159.475 367.257 164.643C367.257 169.788 370.425 172.673 374.669 172.673C378.959 172.673 381.333 169.757 381.616 166.986L377.799 166.964C377.532 168.467 376.402 169.36 374.746 169.36C372.517 169.36 371.112 167.75 371.112 164.643C371.112 161.658 372.486 159.925 374.769 159.925C376.486 159.925 377.608 160.925 377.799 162.49H381.616ZM398.533 164.643C398.533 159.475 395.266 156.613 391.068 156.613C386.854 156.613 383.61 159.475 383.61 164.643C383.61 169.788 386.854 172.673 391.068 172.673C395.266 172.673 398.533 169.811 398.533 164.643ZM394.671 164.643C394.671 167.704 393.327 169.36 391.068 169.36C388.816 169.36 387.465 167.704 387.465 164.643C387.465 161.582 388.816 159.925 391.068 159.925C393.327 159.925 394.671 161.582 394.671 164.643ZM400.739 156.826V172.46H404.419V162.803H404.549L408.304 172.36H410.655L414.411 162.857H414.541V172.46H418.22V156.826H413.541L409.571 166.506H409.388L405.419 156.826H400.739ZM420.577 172.46H431.478V169.391H424.355V166.177H430.92V163.101H424.355V159.895H431.478V156.826H420.577V172.46Z" stroke="white" stroke-width="2" mask="url(#path-2-outside-1)"/>
<path d="M4.061 198.562L5.09152 195.279H10.4884L11.5189 198.562H15.5799L10.3052 182.928H5.27472L0 198.562H4.061ZM5.99227 192.409L7.72507 186.867H7.8472L9.58763 192.409H5.99227ZM17.2631 198.562H27.5454V195.493H21.0416V182.928H17.2631V198.562ZM29.5014 198.562H39.7837V195.493H33.28V182.928H29.5014V198.562ZM52.1366 198.562C56.8998 198.562 59.854 195.623 59.854 190.737C59.854 185.86 56.8998 182.928 52.1289 182.928H46.358V198.562H52.1366ZM50.1366 195.34V186.15H51.9381C54.6251 186.15 56.0678 187.371 56.0678 190.737C56.0678 194.119 54.6251 195.34 51.9915 195.34H50.1366ZM62.0601 198.562H72.9607V195.493H65.8386V192.279H72.4034V189.203H65.8386V185.997H72.9607V182.928H62.0601V198.562ZM75.327 198.562H79.1056V192.279H85.3192V189.203H79.1056V185.997H85.9986V182.928H75.327V198.562ZM91.6798 182.928H87.9013V198.562H91.6798V182.928ZM100.769 198.783C101.815 198.783 102.739 197.898 102.754 196.798C102.739 195.714 101.815 194.837 100.769 194.837C99.6702 194.837 98.7694 195.714 98.7847 196.798C98.7694 197.898 99.6702 198.783 100.769 198.783ZM112.233 198.562L113.263 195.279H118.66L119.691 198.562H123.752L118.477 182.928H113.447L108.172 198.562H112.233ZM114.164 192.409L115.897 186.867H116.019L117.76 192.409H114.164ZM125.435 198.562H135.717V195.493H129.214V182.928H125.435V198.562ZM137.673 198.562H147.956V195.493H141.452V182.928H137.673V198.562ZM162.98 187.615H166.598C166.568 184.692 164.24 182.715 160.606 182.715C157.034 182.715 154.461 184.661 154.484 187.57C154.477 189.944 156.141 191.279 158.843 191.898L160.476 192.279C162.194 192.676 162.965 193.142 162.98 194.02C162.965 194.974 162.072 195.638 160.553 195.638C158.881 195.638 157.782 194.859 157.698 193.356H154.08C154.125 197.012 156.667 198.76 160.599 198.76C164.492 198.76 166.797 196.997 166.812 194.027C166.797 191.531 165.11 190.005 162.026 189.325L160.683 189.02C159.263 188.715 158.362 188.241 158.393 187.31C158.4 186.455 159.133 185.837 160.599 185.837C162.072 185.837 162.881 186.501 162.98 187.615ZM178.178 182.928V192.684C178.178 194.31 177.026 195.478 175.339 195.478C173.644 195.478 172.499 194.31 172.499 192.684V182.928H168.721V193.012C168.721 196.508 171.362 198.76 175.339 198.76C179.285 198.76 181.949 196.508 181.949 193.012V182.928H178.178ZM184.318 182.928V198.562H187.997V188.905H188.127L191.882 198.462H194.234L197.989 188.959H198.119V198.562H201.798V182.928H197.119L193.15 192.608H192.966L188.997 182.928H184.318ZM204.155 182.928V198.562H207.834V188.905H207.964L211.72 198.462H214.071L217.827 188.959H217.956V198.562H221.636V182.928H216.956L212.987 192.608H212.804L208.834 182.928H204.155ZM223.993 198.562H234.893V195.493H227.771V192.279H234.336V189.203H227.771V185.997H234.893V182.928H223.993V198.562ZM237.26 198.562H241.038V193.211H242.977L245.832 198.562H249.954L246.71 192.608C248.427 191.829 249.42 190.295 249.42 188.134C249.42 184.921 247.229 182.928 243.717 182.928H237.26V198.562ZM241.038 190.234V185.974H242.901C244.595 185.974 245.504 186.684 245.504 188.134C245.504 189.585 244.595 190.234 242.901 190.234H241.038ZM258.21 198.783C259.255 198.783 260.179 197.898 260.194 196.798C260.179 195.714 259.255 194.837 258.21 194.837C257.11 194.837 256.21 195.714 256.225 196.798C256.21 197.898 257.11 198.783 258.21 198.783ZM269.673 198.562L270.704 195.279H276.101L277.131 198.562H281.192L275.917 182.928H270.887L265.612 198.562H269.673ZM271.604 192.409L273.337 186.867H273.459L275.2 192.409H271.604ZM282.875 198.562H293.158V195.493H286.654V182.928H282.875V198.562ZM295.114 198.562H305.396V195.493H298.892V182.928H295.114V198.562ZM315.718 198.562H319.352L322.168 189.081H322.291L325.107 198.562H328.749L333.29 182.928H329.123L326.756 193.195H326.626L323.932 182.928H320.527L317.833 193.172H317.703L315.344 182.928H311.169L315.718 198.562ZM334.852 198.562H345.752V195.493H338.63V192.279H345.195V189.203H338.63V185.997H345.752V182.928H334.852V198.562ZM348.118 198.562H358.401V195.493H351.897V182.928H348.118V198.562ZM373.939 188.592C373.557 184.852 370.771 182.715 366.992 182.715C362.824 182.715 359.58 185.577 359.58 190.745C359.58 195.89 362.748 198.775 366.992 198.775C371.282 198.775 373.656 195.859 373.939 193.089L370.122 193.066C369.855 194.569 368.725 195.463 367.069 195.463C364.84 195.463 363.435 193.852 363.435 190.745C363.435 187.76 364.809 186.028 367.091 186.028C368.809 186.028 369.931 187.028 370.122 188.592H373.939ZM390.856 190.745C390.856 185.577 387.589 182.715 383.391 182.715C379.177 182.715 375.933 185.577 375.933 190.745C375.933 195.89 379.177 198.775 383.391 198.775C387.589 198.775 390.856 195.913 390.856 190.745ZM386.994 190.745C386.994 193.806 385.65 195.463 383.391 195.463C381.139 195.463 379.788 193.806 379.788 190.745C379.788 187.684 381.139 186.028 383.391 186.028C385.65 186.028 386.994 187.684 386.994 190.745ZM393.062 182.928V198.562H396.742V188.905H396.871L400.627 198.462H402.978L406.734 188.959H406.864V198.562H410.543V182.928H405.864L401.894 192.608H401.711L397.742 182.928H393.062ZM412.9 198.562H423.8V195.493H416.678V192.279H423.243V189.203H416.678V185.997H423.8V182.928H412.9V198.562Z" stroke="white" stroke-width="2" mask="url(#path-2-outside-1)"/>
<path d="M500.8 35.3C495.3 39.3 491.3 44.3 489.6 50.5C487 47.1 483.5 44.3 479.1 46.1C474.5 48 472.3 53.6 471 58.6C466.8 53.4 460.9 52.9 455.5 59.4C450.5 65.3 446.8 74.4 446.5 82.6C443.7 80.7 440.5 79.9 437.3 82.3C434.2 84.5 433.5 88.5 433.8 92.2C426.9 88.7 419.3 89.6 413.6 96.1C405 106 409.6 116.5 413.5 127C412.7 126.7 411.8 126.4 411 126C410.8 125.9 410.6 125.8 410.4 125.7C409.1 125.1 407.4 126.1 407.9 127.6C408.5 129.3 408.5 131.2 408.6 133C405.6 130.9 401.8 129.5 399.6 133C398.1 135.4 398 138 398.6 140.5C388.7 133.8 376.5 131.3 365.8 138.9C352.4 148.4 354.8 164.1 356.4 178.4C356.4 178.6 356.4 178.8 356.5 179C351.4 175 345.5 172.4 338.8 174C331.8 175.7 327.4 182.4 324.6 188.7C320.8 184.4 315.7 181 309.6 182.2C302.4 183.5 296.7 188.4 291.8 193.6C287.9 188 282.8 184.2 275.7 183.9C269.2 183.6 262.9 187 257.7 190.8C257.8 186.5 257.1 182.2 254.4 178.8C251.6 175.3 247.2 176.5 243.7 178.3C240.7 165.2 225.9 159 213.4 162.9C211.2 158.7 206.7 155.7 202 154.8C195.2 153.5 186.9 156 181.9 161C177.4 152 168.5 147.7 160.3 154C158.7 146.1 155.5 138.3 148.3 133.9C141.6 129.8 133.1 131 125.8 133.2C125.5 133.3 125.2 133.4 124.9 133.5C125.9 130.1 126.1 126.8 125.7 123.6C124.7 116.8 120.6 111 113.7 107.8C127.4 98.9 134 81.3 127.7 65.7C125 59 119.5 53.7 112.4 52.1C103.5 50 94.5 54.5 87.3 59.6C87 49.1 77.7 43.5 67.3 45.1C67.5 42.2 67.4 39.4 66.8 36.8C65.8 32.4 63.4 28.6 58.7 26.1C51.5 22.3 42.2 23.8 34.7 26C33.7 18.7 28.5 15 21.3 17C20.1 10.7 17.2 3.99999 11 1.49999C7.3 0.0999879 2.9 -1.22786e-05 0 1.59999V269.6H500.8V35.3Z" fill="#F0EBD8"/>
<path d="M30.9 65.7C26.5 62.1 23 58.9 24.7 52.7C25.1 51.3 23.6 50.3 22.4 50.9C15.8 54.3 8.2 54.3 4.6 47C4.2 46.1 3.1 46.1 2.3 46.4C1.5 46.7 0.8 47 0 47.2V73.6C2.7 73.7 5.4 75 7.8 77.7C8.6 78.6 10 77.8 10 76.8C10.6 66.9 20.7 61.4 28.8 67.8C30.3 69 32.4 66.9 30.9 65.7Z" fill="#F0EBD8"/>
<path d="M196.1 211.3C184.4 207.7 179 196.5 183.7 185.2C184.2 183.9 182.2 182.8 181.3 183.8C176.8 189.2 163.6 205.4 159.2 192.2C158.8 191 156.7 190.7 156.5 192.2C155.3 199.6 148.2 204.7 142.1 198.3C141.4 197.5 140.2 198 139.9 198.9C136.5 209.7 126.6 201.3 124.6 194.5C124.2 193.2 122 193.4 122.2 194.8C122.7 199.5 120.9 202.4 118.8 206C115.5 201.2 115.7 194.9 115.7 189.2C115.7 188.3 114.7 187.7 113.9 188.2C107.3 192.5 98.9998 191.4 102.3 181.8C102.7 180.7 101.4 179.9 100.5 180.4C94.0998 183.8 86.3998 186 79.6998 182C72.6998 177.7 74.2998 168.1 76.5998 161.7C76.9998 160.6 75.6998 160 74.8998 160.4C67.8998 163.5 62.7998 160.8 64.3998 152.8C64.6998 151.3 62.5998 150.7 62.0998 152.2C60.2998 157.1 57.5998 160.2 52.0998 158.7C51.0998 158.4 50.0998 158 49.0998 157.5C47.4998 155.8 45.2998 154.4 42.3998 153.6C41.0998 153.3 40.3998 155.1 41.4998 155.7C43.4998 156.9 45.5998 158.2 47.6998 159.2C50.5998 162.5 50.0998 167.4 46.6998 171.9C46.2998 172.4 46.5998 173.2 47.0998 173.5C53.8998 177.9 52.0998 184.3 45.9998 188.2C45.2998 188.7 45.1998 189.9 45.9998 190.3C50.7998 192.8 54.5998 197 53.6998 202.7C52.5998 209.4 45.3998 209.9 40.2998 208.2C39.0998 207.8 38.4998 209.3 39.1998 210.2C49.7998 223 33.4998 247.2 18.3998 236.2C17.6998 235.7 16.6998 236.4 16.6998 237.2C16.6998 238.9 16.5998 240.5 16.0998 242.2C15.1998 245.8 10.6998 242.6 9.4998 241.8C8.5998 241.2 7.69981 242.2 7.89981 243C8.7998 248.7 4.9998 253.1 0.299805 253.7V261.7H119.6C119 259.2 119.2 256.8 120 253.8C120.9 250.3 118.9 248.9 117.7 245.5C115.5 239.8 117.7 234.4 122.5 230.9C131.6 224.3 146.7 224.5 156.4 229.4C157.3 229.9 158.4 229.3 158.5 228.2C158.6 225.6 159.2 223.1 159.5 220.5C165.6 220.1 170.5 222.3 175.4 226C176.1 226.5 177.3 226 177.4 225.2C178.8 215.7 186.6 210.9 195.7 213.9C197.1 214.5 197.8 211.8 196.1 211.3Z" fill="#F0EBD8"/>
<path d="M306.4 252.6C299.7 253.3 294.6 251.5 295.4 243.8C295.5 243 294.6 242.5 293.9 242.6C285.3 244.5 276.5 242.3 273.1 233.4C272.5 232 270.3 232.6 270.8 234C275.1 246.6 260.5 258 253 244.2C252.5 243.3 251.1 243.5 250.8 244.5C248.6 253.5 234.7 258.5 230.8 247.8C230.5 247 229.5 246.6 228.8 247.3C224.1 252.7 217.7 254.4 211 251.6C210.7 251.5 210.2 251.6 210 251.9C205.6 257 199.2 259.2 193.5 254.3C193.1 254 192.5 254 192.3 254.5C190.8 257.1 188.7 259 186.7 261.1C186.1 260.9 185.5 261.2 185.1 261.6H304.8C305.3 259.2 306.3 256.8 307.5 254.4C307.9 253.7 307.4 252.5 306.4 252.6Z" fill="#F0EBD8"/>
<path d="M358.2 172.7C357.6 172 357 171.2 356.4 170.5C356.4 170.7 356.4 170.9 356.5 171.1C351.4 167.1 345.5 164.5 338.8 166.1C331.8 167.8 327.4 174.5 324.6 180.8C320.8 176.5 315.7 173.1 309.6 174.3C302.4 175.6 296.7 180.5 291.8 185.7C287.9 180.1 282.8 176.3 275.7 176C269.2 175.7 262.9 179.1 257.7 182.9C257.8 178.6 257.1 174.3 254.4 170.9C251.6 167.4 247.2 168.6 243.7 170.4C240.7 157.3 225.9 151.1 213.4 155C211.2 150.8 206.7 147.8 202 146.9C195.2 145.6 186.9 148.1 181.9 153.1C177.4 144.1 168.5 139.8 160.3 146.1C158.7 138.2 155.5 130.4 148.3 126C141.6 121.9 133.1 123.1 125.8 125.3C125.3 127.3 124.8 129.2 124.8 130.3C124.8 130.9 125.5 131.5 126.1 131.3C142.2 125.6 146.1 145.8 148.2 157.3C148.3 158 149.2 158.2 149.7 157.9C159 152.4 164.8 160.1 167.1 168.4C167.3 169.1 168.3 169.5 168.8 168.9C175.5 161.1 185.7 157 196 159C207.8 161.4 212.5 172.4 210.5 183.4C210.4 184.2 211 184.9 211.8 184.7C224.9 181.3 236.9 197.2 229.5 208.8C229.2 209.3 229.4 210 229.9 210.3C238.2 215.8 240.3 224.4 239.4 233.9C239.3 235.1 241.3 235.4 241.5 234.2C242.6 228.4 244.9 224.7 249.9 221.5C250.4 221.2 250.5 220.6 250.3 220.1C246.8 213.2 248.6 205.3 256.3 202.6C256.8 202.4 257.1 202 257 201.4C252.5 186.1 278.2 180 281.7 195.3C281.9 196 282.8 196.4 283.4 196C297.7 186.7 312.9 187.7 327.8 195.1C328.8 195.6 329.7 195 329.8 193.9C331.4 180.1 343.6 171.5 357 175.2C358.2 175.3 359 173.7 358.2 172.7Z" fill="#F0EBD8"/>
<path d="M465.5 187C456 184.8 442.6 180.8 446.2 168.4C446.4 167.7 445.6 166.7 444.8 167C442.9 167.8 441.7 169.5 440.4 171.1C439.4 170.6 438 170 437.4 169.7C437.3 169.5 437.3 169.2 437.2 169C436.9 168 435.4 168 435.1 169C434.9 169.7 435.1 170.3 435.5 170.8C437.1 176.7 435.8 183 427.8 179.5C426.8 179 425.7 180 426.3 181C430.9 190.3 431.4 202.2 420.1 206.4C410.6 209.9 401.5 203.5 400.4 193.8C400.3 193 399.6 192.6 398.9 193C392.8 195.8 390.2 192.8 389.2 186.9C389.1 186.1 387.8 185.9 387.4 186.7C386.9 187.8 386.2 189 385.8 190.1C385.1 192.1 385.5 191.3 383.8 190.7C380.4 189.6 378.6 189.1 376.7 185.6C376.3 184.9 375.4 185.2 375.2 185.8C374.2 188.4 373.2 191 372.5 193.8C372.1 195.4 372.5 199.3 370.8 199.9C368.2 200.8 367.9 202.6 367.4 204.7C366.7 205.2 366 205.6 365.3 206.1C364.1 207 365.3 209.1 366.5 208.2C369.6 205.8 373 204.2 376.6 202.7C378.1 202.1 384.7 198.8 386.2 200C388.2 201.8 390.8 203 393.2 204.2C393.7 204.5 394.1 209.3 394.4 210.2C397.1 217.9 407.2 219.8 414.2 220C423.2 220.2 430.5 216.6 436.1 209.7C439.1 206.1 441.5 202.1 444.7 198.7C449.6 193.6 455 195.9 459.7 200.1C460.2 200.5 461.2 200.6 461.5 199.9C463.1 196.4 463.7 191.9 465.9 188.8C466.6 188.1 466.2 187.2 465.5 187Z" fill="#F0EBD8"/>
<path d="M113.5 99.9C127.2 91 133.8 73.4 127.5 57.8C124.8 51.1 119.3 45.8 112.2 44.2C103.3 42.1 94.3001 46.6 87.1001 51.7C86.8001 41.2 77.5001 35.6 67.1001 37.2C67.3001 34.3 67.2001 31.5 66.6001 28.9C65.7001 32.6 64.8001 36.3 64.6001 40.2C64.6001 40.7 65.0001 41 65.4001 41C77.0001 41.4 79.0001 53 80.0001 62.3C80.1001 63.1 80.8001 63.5 81.5001 63.2C91.9001 57.9 108.4 52.8 115.7 65.4C122.5 76.9 114.1 92.6 107 101.7C106.5 102.4 106.8 103.4 107.7 103.4C115.8 103.9 119.1 112.7 121.1 119.4C121.4 120.3 122.7 120.6 123.2 119.7C123.9 118.4 124.7 117 125.4 115.7C124.5 108.9 120.3 103.1 113.5 99.9Z" fill="#F0EBD8"/>
<path d="M500.8 261.6V241.5C496.8 240 493 238.3 489.3 236.3C486.5 234.8 480 231.4 480.6 227.4C480.7 226.6 480 225.9 479.3 226.4C475.6 228.5 471.4 230.1 467.2 228.3C463.2 226.6 462.5 221.8 462.6 217.7C462.7 216.8 462.8 215.9 462.9 215C462.9 213.9 461.1 213.7 461 214.7C461 214.8 461 214.9 461 215C460.9 215.8 460.8 216.7 460.8 217.5C459.5 226.5 452.8 236.7 443.8 227.6C443.1 226.9 441.7 227.9 442.3 228.7C447.3 235.4 448.9 243.6 440.3 248C433.2 251.6 423.7 249.7 418 244.4C417.8 244.2 417.3 244.1 417 244.3C415.4 245.5 414.1 246.4 412.2 247C407.2 248.7 406.1 242.7 406 239.4C406 238.7 405.2 238.4 404.6 238.8C397.6 245.1 390.7 240.1 390.3 232.5C390.3 231.4 390.4 230.3 390.5 229.4C390.6 228.3 388.8 228.1 388.6 229.1C387.9 234.2 388.4 239.3 387.6 244.4C386.8 249.6 381.9 252.5 376.8 251.3C371.9 250.2 369.3 244.5 368.1 240.3C367.9 239.5 366.6 239.4 366.4 240.3C365.4 244.5 363.4 248.4 359 249.8C353.8 251.4 351 245.5 350.2 241.5C350 240.7 348.8 240.7 348.6 241.5C347.1 249.1 341.1 251.6 334 249.9C333.5 249.8 332.9 250.1 333 250.7C333.6 255.5 331.3 258.1 329.3 261.8H500.8V261.6Z" fill="#F0EBD8"/>
<path d="M400 259H0V303H400V259Z" fill="#F0EBD8"/>
<path d="M353.6 281.5C353.6 281.5 89.1002 261.7 87.2002 264.1C85.2002 266.5 100.7 283 104.7 284.5C108.7 286.1 141.5 291.8 147.9 289.3C154.3 286.8 179.4 285.5 192.8 289.3C206.1 293.1 230.6 301.7 241.6 303.3C252.6 304.9 287.7 295.4 301.1 295.4C314.5 295.4 346.5 297 353.6 291.9C360.7 286.8 353.6 281.5 353.6 281.5Z" fill="#E5DFC0"/>
<path d="M400 164H0V232H400V164Z" fill="#0A72B8"/>
<path d="M0 162.8V168.2L165.8 165.5L0 162.8Z" fill="#173B69"/>
<path d="M0 177.6V180.5L87.2 179.1L0 177.6Z" fill="#173B69"/>
<path d="M0 202.3V205.5L97.3 203.9L0 202.3Z" fill="#173B69"/>
<path d="M0 189.2V190.7L43.6 190L0 189.2Z" fill="#173B69"/>
<path d="M0 216.8V221.5L145 219.2L0 216.8Z" fill="#173B69"/>
<path d="M500.8 163.9L340 166.5L500.8 169.2V163.9Z" fill="#173B69"/>
<path d="M500.8 176.6L283.5 180.1L500.8 183.7V176.6Z" fill="#173B69"/>
<path d="M500.8 188.4L340 191L500.8 193.6V188.4Z" fill="#173B69"/>
<path d="M323.9 191C323.9 191 322.9 191 321.1 191.1C319.3 191.2 316.7 191.3 313.3 191.4C306.6 191.6 297 191.9 285.5 192.2C279.8 192.3 273.5 192.4 266.9 192.5C260.3 192.6 253.4 192.7 246.2 192.8C239 192.9 231.6 193 224 193C216.5 193 208.8 193 201.1 193.1C193.4 193.1 185.8 193.1 178.2 193C170.7 193 163.2 192.9 156 192.8C148.8 192.7 141.9 192.6 135.3 192.5C128.7 192.4 122.5 192.3 116.7 192.1C105.2 191.9 95.5998 191.5 88.8998 191.3C85.4998 191.2 82.8998 191.1 81.0998 191C79.2998 190.9 78.2998 190.9 78.2998 190.9C78.2998 190.9 79.2998 190.9 81.0998 190.8C82.8998 190.7 85.4998 190.6 88.8998 190.5C95.5998 190.3 105.2 190 116.7 189.7C122.4 189.6 128.7 189.4 135.3 189.3C141.9 189.2 148.8 189.1 156 189C163.2 188.9 170.6 188.8 178.2 188.8C185.7 188.8 193.4 188.8 201.1 188.7C208.8 188.7 216.4 188.7 224 188.8C231.5 188.8 239 188.9 246.2 189C253.4 189.1 260.3 189.2 266.9 189.3C273.5 189.4 279.7 189.5 285.5 189.7C297 189.9 306.6 190.3 313.3 190.5C316.7 190.6 319.3 190.7 321.1 190.8C323 191 323.9 191 323.9 191Z" fill="#173B69"/>
<path d="M345.1 169C345.1 169 334.8 169.7 319.5 170.2C315.7 170.3 311.5 170.5 307.1 170.5C302.7 170.6 298 170.7 293.2 170.8C288.4 170.9 283.4 171 278.4 171C273.4 171 268.2 171 263.1 171.1C258 171.1 252.8 171.1 247.8 171C242.8 171 237.8 170.9 233 170.8C228.2 170.7 223.5 170.6 219.1 170.5C214.7 170.4 210.5 170.3 206.7 170.1C191.3 169.6 181.1 168.9 181.1 168.9C181.1 168.9 191.4 168.2 206.7 167.7C210.5 167.6 214.7 167.4 219.1 167.3C223.5 167.2 228.2 167.1 233 167C237.8 166.9 242.8 166.8 247.8 166.8C252.8 166.8 258 166.8 263.1 166.7C268.2 166.7 273.4 166.7 278.4 166.8C283.4 166.8 288.4 166.9 293.2 167C298 167 302.7 167.2 307.1 167.3C311.5 167.4 315.7 167.5 319.5 167.7C334.9 168.4 345.1 169 345.1 169Z" fill="#173B69"/>
<path d="M389.7 213.1C389.7 213.1 379.4 213.8 364.1 214.3C360.3 214.4 356.1 214.6 351.7 214.6C347.3 214.7 342.6 214.8 337.8 214.9C333 215 328 215.1 323 215.1C318 215.1 312.8 215.1 307.7 215.2C302.6 215.2 297.4 215.2 292.4 215.1C287.4 215.1 282.4 215 277.6 214.9C272.8 214.8 268.1 214.7 263.7 214.6C259.3 214.5 255.1 214.4 251.3 214.2C235.9 213.7 225.7 213 225.7 213C225.7 213 236 212.3 251.3 211.8C255.1 211.7 259.3 211.5 263.7 211.4C268.1 211.3 272.8 211.2 277.6 211.1C282.4 211 287.4 210.9 292.4 210.9C297.4 210.9 302.6 210.9 307.7 210.8C312.8 210.8 318 210.8 323 210.9C328 210.9 333 211 337.8 211.1C342.6 211.1 347.3 211.3 351.7 211.4C356.1 211.5 360.3 211.6 364.1 211.8C379.4 212.4 389.7 213.1 389.7 213.1Z" fill="#173B69"/>
<path d="M500.8 216.3L257.7 220.2L500.8 224.2V216.3Z" fill="#173B69"/>
<path d="M109.056 144.778V97H160.234V135.596C160.234 138.204 159.327 140.357 157.57 142.114C155.813 143.871 153.546 144.778 150.826 144.778H109.056ZM135.127 106.125H134.107V135.483H134.673C134.957 135.483 135.127 135.2 135.127 134.576V106.125Z" fill="white" stroke="black"/>
<path d="M211.981 144.778H161.199V97H211.981V124.035H187.27V106.125H186.25V124.998H211.981V134.236H186.25V135.256H211.981V144.778Z" fill="white" stroke="black"/>
<path d="M238.051 141.547V144.778H213V97H263.782V131.346H239.072V106.125H238.051V132.309H263.782V141.491H238.051V141.547Z" fill="white" stroke="black"/>
<path d="M264.747 97H291.894V101.024H264.747V97ZM264.747 144.778V101.988H291.894V144.721H264.747V144.778Z" fill="white" stroke="black"/>
<path d="M135.978 182.241V174.136C126.4 174.533 116.935 177.367 109 180.597V192.216H136.771V192.442C136.771 193.066 136.545 193.349 136.148 193.349H109V203.608H153.491C156.721 203.608 159.272 202.701 161.029 200.83C162.786 198.96 163.692 196.523 163.692 193.519V182.354H135.978V182.241ZM137.055 174.079V181.107H162.219C154.568 175.723 145.839 173.853 137.055 174.079Z" fill="#1FB1FD" stroke="black"/>
<path d="M163.692 152.032V181.164H162.219C154.568 175.723 145.783 173.909 137.055 174.136V161.951H136.601C136.205 161.951 135.978 162.348 135.978 163.198V174.193C126.4 174.59 116.935 177.423 109 180.654V162.178C109 159.174 109.907 156.737 111.777 154.866C113.647 152.996 116.198 152.089 119.428 152.089H163.692V152.032Z" fill="white" stroke="black"/>
<path d="M192.824 190.515V193.632H191.747V190.459C178.145 190.062 167.943 184.678 164.769 182.864V203.494H219.858V183.657C210.223 188.872 200.985 190.572 192.824 190.515Z" fill="#1FB1FD" stroke="black"/>
<path d="M219.802 152.032V183.658C210.167 188.872 200.929 190.572 192.824 190.516V152.032H219.802Z" fill="white" stroke="black"/>
<path d="M191.747 152.032V190.516C178.145 190.119 167.943 184.735 164.769 182.921V152.089H191.747V152.032Z" fill="white" stroke="black"/>
<path d="M267.806 175.61V203.495H291.27V180.825C282.599 178.217 274.777 176.574 267.806 175.61ZM245.533 175.044V203.495H266.729V175.44C258.455 174.477 251.427 174.477 245.533 175.044ZM220.935 203.495H244.399V175.157C229.493 176.801 222.125 182.071 220.935 183.035V203.495Z" fill="#1FB1FD" stroke="black"/>
<path d="M291.327 152.032V180.881C282.599 178.217 274.834 176.573 267.863 175.61V161.894H266.786V175.496C258.512 174.476 251.484 174.476 245.59 175.043V161.894H244.513V175.156C229.607 176.8 222.239 182.071 221.049 183.034V152.032H291.327Z" fill="white" stroke="black"/>
<path d="M109.057 210.749H179.448V262.268H155.984V220.668H154.908V262.268H133.654V220.668H132.577V262.268H109.057V210.749Z" fill="#1FB1FD" stroke="black"/>
<path d="M235.275 262.268H180.525V210.749H235.275V239.881H208.637V220.668H207.56V241.015H235.331V250.99H207.56V252.066H235.331V262.268H235.275Z" fill="#1FB1FD" stroke="black"/>
<path d="M264.52 246.568H263.386V256.883H236.408V210.805H291.497V233.306C291.497 236.763 290.194 239.314 287.587 241.07H291.554V256.883H264.52V246.568Z" fill="#1FB1FD" stroke="black"/>
<path d="M291.554 257.96H236.464V262.267H291.554V257.96Z" fill="white" stroke="black"/>
<path d="M263.386 236.593H264.009C264.349 236.593 264.463 236.253 264.463 235.63V220.667H263.386V236.593Z" fill="#1FB1FD" stroke="black"/>
<path d="M245.533 175.043C245.136 175.1 244.796 175.1 244.456 175.156" stroke="black"/>
<path d="M267.807 175.61C267.467 175.553 267.07 175.497 266.73 175.44" stroke="black"/>
<path d="M192.824 190.516C192.428 190.516 192.088 190.516 191.748 190.516" stroke="black"/>
<path d="M137.054 174.079C136.714 174.079 136.318 174.079 135.978 174.136" stroke="black"/>
</g>
<defs>
<clipPath id="clip0">
<rect width="400" height="300" fill="white"/>
</clipPath>
</defs>
</svg>
